<?xml version="1.0" encoding="iso-8859-1"?>
<!-- Generator: Adobe Illustrator 16.0.0, SVG Export Plug-In . SVG Version: 6.00 Build 0)  -->
<!DOCTYPE svg PUBLIC "-//W3C//DTD SVG 1.1//EN" "http://www.w3.org/Graphics/SVG/1.1/DTD/svg11.dtd">
<svg version="1.1" id="Capa_1" xmlns="http://www.w3.org/2000/svg" xmlns:xlink="http://www.w3.org/1999/xlink" x="0px" y="0px"
	 width="611.9px" height="611.9px" viewBox="0 0 611.9 611.9" style="enable-background:new 0 0 611.9 611.9;" xml:space="preserve"
	>
<g>
	<path d="M559.1,574.851H119.5c-29.2,0-52.9-23.701-52.9-52.9v-272.3c0-2.9,2.3-5.2,5.2-5.2c2.9,0,5.2,2.3,5.2,5.2v272.3
		c0,23.4,19.1,42.5,42.5,42.5h439.6c23.4,0,42.5-19.1,42.5-42.5v-354.8c0-23.4-19.1-42.5-42.5-42.5H520.2c-14.9,0-27-12.1-27-27
		v-33.6c0-9.5-7.101-16.6-16.601-16.6c-9.199,0-16.6,7.4-16.6,16.6v33.6c0,14.9-12.1,27-27,27s-27-12.1-27-27v-33.6
		c0-9.5-7.1-16.6-16.6-16.6c-9.2,0-16.601,7.4-16.601,16.6v33.6c0,14.9-12.1,27-27,27c-14.899,0-27-12.1-27-27v-33.6
		c0-9.2-7.399-16.6-16.6-16.6c-9.2,0-16.6,7.4-16.6,16.6v33.6c0,14.9-12.1,27-27,27c-14.9,0-27-12.1-27-27v-33.6
		c0-9.2-7.4-16.6-16.6-16.6c-9.2,0-16.6,7.4-16.6,16.6v33.6c0,15.1-11.9,27-27,27c-14.9,0-27-12.1-27-27v-33.6
		c0-9.5-7.1-16.6-16.6-16.6c-9.2,0-16.6,7.4-16.6,16.6v33c0,14.9-12.1,27-27,27H52.9c-23.4,0-42.5,19.1-42.5,42.5v354.699
		c0,2.9-2.3,5.201-5.2,5.201c-2.9,0-5.2-2.301-5.2-5.1V166.55c0-29.2,23.7-52.9,52.9-52.9h31.2c9.2,0,16.6-7.4,16.6-16.6v-33
		c0-14.9,12.1-27,27-27c15.1,0,27,11.9,27,27v33.6c0,9.2,7.4,16.6,16.6,16.6c9.5,0,16.6-7.1,16.6-16.6v-33.6c0-14.9,12.1-27,27-27
		s27,12.1,27,27v33.6c0,9.2,7.4,16.6,16.6,16.6s16.6-7.4,16.6-16.6v-33.6c0-14.9,12.1-27,27-27s27,12.1,27,27v33.6
		c0,9.2,7.4,16.6,16.601,16.6s16.6-7.4,16.6-16.6v-33.6c0-14.9,12.101-27,27-27c15.101,0,27,11.9,27,27v33.6
		c0,9.2,7.4,16.6,16.601,16.6c9.199,0,16.6-7.4,16.6-16.6v-33.6c0-14.9,12.1-27,27-27c15.1,0,27,11.9,27,27v33.6
		c0,9.2,7.4,16.6,16.6,16.6H559c29.2,0,52.9,23.7,52.9,52.9v354.8C612,551.05,588.3,574.851,559.1,574.851z"/>
</g>
<g>
</g>
<g>
</g>
<g>
</g>
<g>
</g>
<g>
</g>
<g>
</g>
<g>
</g>
<g>
</g>
<g>
</g>
<g>
</g>
<g>
</g>
<g>
</g>
<g>
</g>
<g>
</g>
<g>
</g>
</svg>
