<?xml version="1.0" standalone="no"?>
<!DOCTYPE svg PUBLIC "-//W3C//DTD SVG 20010904//EN"
 "http://www.w3.org/TR/2001/REC-SVG-20010904/DTD/svg10.dtd">
<svg version="1.0" xmlns="http://www.w3.org/2000/svg"
 width="1024.000000pt" height="1024.000000pt" viewBox="0 0 1024.000000 1024.000000"
 preserveAspectRatio="xMidYMid meet">
<metadata>
Created by potrace 1.11, written by Peter Selinger 2001-2013
</metadata>
<g transform="translate(0.000000,1024.000000) scale(0.100000,-0.100000)"
fill="#000000" stroke="none">
<path d="M4773 9993 c4 -6 -5 -15 -19 -22 -14 -6 -22 -16 -19 -21 4 -6 11 -7
17 -4 7 5 8 2 4 -5 -6 -9 -13 -8 -27 5 -12 11 -19 13 -19 5 0 -7 -5 -9 -12 -5
-10 6 -10 5 -1 -8 13 -15 8 -28 -11 -28 -6 0 -5 4 2 9 11 7 11 9 0 14 -10 3
-14 -3 -14 -24 0 -16 4 -29 10 -29 6 0 3 -5 -7 -11 -9 -6 -14 -15 -11 -21 4
-7 2 -8 -5 -4 -6 4 -9 11 -6 16 3 4 -2 10 -10 13 -10 4 -12 1 -8 -10 5 -12 2
-15 -10 -10 -8 3 -21 -1 -27 -9 -9 -10 -9 -14 -1 -14 6 0 11 5 11 11 0 5 5 7
12 3 8 -5 5 -11 -10 -17 -12 -6 -22 -18 -22 -28 0 -9 -5 -19 -12 -21 -7 -3 -5
-7 6 -11 9 -4 15 -3 11 2 -3 5 -2 12 3 15 4 2 9 -4 9 -15 1 -10 -3 -19 -8 -19
-6 0 -7 -5 -3 -11 5 -8 9 -7 15 4 6 10 17 13 31 9 16 -4 19 -2 13 9 -5 8 -4
11 1 6 9 -8 10 -12 13 -38 0 -6 8 -8 17 -5 9 3 12 2 9 -5 -4 -6 -13 -8 -21 -5
-7 3 -16 0 -20 -6 -4 -6 -3 -8 3 -5 8 5 31 -28 39 -55 1 -5 2 -9 4 -10 1 -2 3
-11 5 -20 2 -11 -2 -15 -11 -11 -10 4 -12 0 -8 -11 4 -10 1 -16 -7 -16 -7 0
-9 -3 -6 -6 4 -4 13 -2 21 5 11 9 15 8 20 -4 3 -9 2 -13 -3 -10 -5 3 -12 1
-16 -5 -3 -5 -2 -10 2 -10 5 0 9 -9 10 -20 2 -20 1 -20 -18 2 l-20 23 15 -26
c9 -14 13 -29 9 -32 -12 -13 13 -7 27 6 12 10 12 9 1 -5 -11 -15 -11 -19 3
-24 14 -6 14 -9 -5 -25 -12 -11 -18 -19 -13 -19 6 0 16 6 23 13 11 10 12 9 4
-7 -6 -10 -8 -28 -5 -40 4 -21 4 -21 -12 -1 l-17 20 9 -20 c5 -11 7 -27 4 -35
-5 -13 -3 -13 12 -1 14 12 16 12 10 -3 -3 -9 -11 -16 -17 -16 -6 0 -2 -7 9
-15 14 -11 15 -14 3 -9 -20 6 -34 -11 -18 -22 8 -5 9 -3 4 6 -5 9 -4 11 3 6
13 -8 1 -39 -18 -51 -6 -3 -10 -12 -10 -18 0 -7 4 -6 10 3 7 12 9 10 7 -8 -1
-13 -6 -21 -13 -18 -7 3 -18 -2 -24 -10 -8 -9 -9 -14 -2 -14 6 0 12 6 14 12 3
7 7 3 10 -9 4 -15 2 -20 -8 -16 -9 3 -12 -2 -9 -16 2 -11 -1 -24 -7 -27 -6 -4
-8 -2 -4 4 3 6 2 13 -3 16 -5 3 -7 -10 -5 -29 1 -20 -1 -33 -6 -30 -14 9 -23
-16 -11 -28 9 -9 11 -8 8 3 -2 8 -2 12 0 7 3 -4 10 -4 16 0 7 4 6 0 -1 -10 -8
-9 -11 -20 -8 -25 3 -6 -2 -9 -11 -8 -10 0 -18 -5 -19 -11 -1 -7 -3 -16 -4
-20 -1 -5 -3 -15 -4 -23 0 -8 -7 -14 -14 -12 -8 1 -11 -2 -7 -8 3 -6 10 -8 15
-5 4 3 11 -2 14 -11 4 -12 1 -14 -14 -9 -14 4 -20 2 -18 -6 2 -7 -4 -14 -12
-14 -8 0 -14 -7 -12 -14 1 -7 -2 -10 -8 -6 -6 3 -8 11 -5 16 4 5 1 9 -4 9 -6
0 -11 -4 -11 -9 0 -6 -12 -6 -29 -1 -24 7 -29 5 -24 -6 3 -8 10 -11 16 -7 5 3
7 1 4 -5 -4 -5 -16 -8 -27 -5 -11 3 -17 10 -13 16 3 6 1 7 -5 3 -7 -4 -12 -15
-12 -24 0 -13 -2 -14 -9 -3 -7 11 -9 11 -14 0 -4 -10 -6 -10 -6 -1 -1 6 -6 12
-12 12 -5 0 -8 -4 -5 -8 8 -13 -29 -31 -45 -21 -20 13 -31 11 -23 -3 5 -8 0
-7 -11 2 -11 9 -16 10 -11 3 5 -9 1 -13 -12 -13 -10 0 -22 -3 -26 -7 -10 -10
-37 -13 -31 -3 6 9 -25 23 -33 15 -3 -3 0 -5 6 -5 7 0 12 -7 12 -15 0 -8 -5
-15 -11 -15 -5 0 -7 5 -4 10 3 6 -1 10 -10 10 -9 0 -13 -5 -10 -10 4 -6 3 -10
-2 -9 -21 4 -34 -2 -27 -13 4 -7 3 -8 -4 -4 -7 4 -12 2 -12 -5 0 -7 -3 -9 -7
-6 -3 4 2 17 13 28 19 22 19 22 -2 11 -12 -6 -24 -8 -28 -4 -4 3 -4 -2 -1 -13
6 -19 6 -19 -8 -3 -13 17 -15 16 -25 -5 -9 -20 -10 -19 -7 11 2 17 -1 32 -6
32 -9 0 -13 -13 -10 -40 1 -13 0 -13 -11 0 -7 8 -19 16 -27 18 -12 3 -12 0 -2
-12 9 -11 9 -16 0 -22 -7 -4 -10 -3 -7 2 7 10 -11 27 -32 32 -11 3 -11 0 0
-13 11 -13 10 -15 -4 -9 -9 3 -16 9 -16 13 0 4 -7 8 -15 8 -12 0 -12 -3 -2
-16 10 -12 9 -13 -1 -7 -7 4 -19 3 -27 -4 -10 -8 -16 -7 -27 7 -7 10 -19 19
-27 21 -12 3 -12 0 -1 -13 11 -13 10 -15 -4 -9 -9 3 -16 11 -16 17 0 5 -9 0
-20 -13 -11 -13 -20 -19 -20 -14 0 6 5 15 12 22 16 16 -3 15 -24 -2 -10 -7
-14 -17 -10 -21 4 -5 1 -5 -6 -1 -10 6 -10 11 -1 22 15 18 7 18 -39 -2 -24
-10 -33 -11 -24 -3 6 7 12 17 12 22 0 5 -7 1 -16 -7 -21 -21 -35 -20 -28 2 5
14 4 14 -4 2 -7 -9 -7 -19 -2 -25 7 -8 5 -12 -5 -12 -8 0 -12 4 -9 9 3 4 -4 8
-16 8 -14 0 -19 4 -14 13 6 10 4 10 -7 0 -15 -14 -33 -18 -25 -5 3 5 -9 7 -27
6 -49 -2 -50 -3 -37 -21 7 -10 1 -5 -14 10 -28 30 -32 29 -15 -6 10 -22 10
-22 -8 -2 -10 11 -25 21 -33 23 -12 3 -13 1 -2 -9 6 -7 12 -18 12 -23 0 -6 -4
-5 -9 3 -5 8 -22 15 -38 16 -16 1 -34 4 -40 8 -6 4 -14 2 -16 -3 -3 -6 -4 -5
-2 2 1 7 8 12 14 10 7 -1 10 2 6 8 -3 6 -17 8 -31 6 -14 -3 -24 0 -24 7 -1 7
-8 1 -16 -13 l-15 -25 5 25 c4 22 3 23 -8 8 -11 -15 -13 -15 -23 0 -10 14 -11
13 -7 -8 l5 -25 -16 25 c-11 17 -15 19 -10 6 5 -18 4 -19 -12 -4 -10 8 -24 13
-32 10 -8 -3 -11 0 -7 6 4 7 -1 9 -16 6 -29 -7 -167 -13 -150 -7 10 4 8 9 -5
19 -10 7 -22 13 -28 14 -5 0 -3 -5 5 -10 8 -5 10 -10 4 -10 -5 0 -15 5 -22 12
-8 8 -15 8 -27 -2 -8 -7 -15 -8 -15 -2 0 5 -9 12 -20 15 -13 3 -18 1 -13 -5 3
-6 1 -8 -5 -4 -5 3 -13 0 -16 -6 -3 -7 -3 -3 0 9 4 19 1 21 -23 17 -40 -6 -45
-6 -72 2 -17 5 -22 4 -17 -4 4 -7 2 -12 -3 -12 -14 0 -14 6 0 33 10 21 9 21
-10 -2 -12 -13 -21 -18 -21 -12 0 7 -4 9 -10 6 -5 -3 -10 -1 -10 5 0 6 -4 8
-10 5 -5 -3 -10 -2 -10 4 0 5 6 11 13 14 6 3 2 4 -9 4 -19 -1 -21 -5 -13 -24
12 -32 3 -29 -15 5 -14 25 -15 26 -16 5 0 -13 -4 -23 -9 -23 -6 0 -8 8 -6 19
3 15 -1 18 -17 13 -15 -4 -19 -2 -13 7 6 10 3 10 -16 0 -13 -7 -26 -11 -29
-10 -3 2 -13 7 -23 12 -10 6 -14 15 -10 22 4 7 0 7 -10 -2 -14 -11 -17 -11
-17 0 0 8 -6 6 -16 -7 -8 -10 -12 -13 -8 -5 5 11 3 13 -9 8 -10 -3 -17 -2 -17
3 0 6 5 10 12 10 6 0 9 2 6 5 -8 9 -38 -6 -32 -16 3 -5 -2 -6 -11 -3 -13 5
-13 9 -3 23 8 11 5 10 -10 -3 -12 -11 -22 -15 -22 -10 0 5 -5 2 -10 -6 -7 -11
-10 -11 -10 -2 0 7 -5 10 -10 7 -6 -4 -10 -3 -9 2 6 33 -26 43 -37 11 -3 -10
-10 -18 -16 -18 -6 0 -6 6 2 15 7 9 10 18 6 22 -3 4 -13 -2 -21 -13 -13 -16
-14 -16 -9 -1 4 10 1 17 -6 17 -6 0 -8 5 -4 12 4 7 3 8 -4 4 -6 -4 -9 -14 -6
-24 5 -13 4 -14 -4 -3 -7 9 -12 10 -16 2 -4 -6 -13 -11 -19 -11 -7 0 -4 5 6
11 24 14 22 33 -2 19 -26 -14 -38 -13 -23 2 22 22 13 29 -10 9 -16 -15 -25
-18 -34 -10 -7 6 -18 8 -24 4 -5 -3 -14 4 -19 17 -6 13 -10 18 -10 11 -1 -6
-4 -19 -8 -29 -5 -13 -3 -15 7 -9 9 6 11 4 6 -4 -5 -7 -14 -10 -20 -8 -7 3
-13 -1 -13 -9 0 -7 4 -11 9 -8 4 3 8 0 8 -6 0 -6 5 -8 12 -4 7 4 8 3 4 -5 -4
-6 -11 -9 -16 -6 -4 3 -11 -2 -14 -11 -3 -8 -2 -13 2 -11 4 3 16 -5 27 -16
l20 -20 -22 12 c-17 8 -22 8 -27 -5 -3 -8 -2 -13 3 -10 5 3 11 -1 15 -9 3 -8
0 -14 -6 -12 -7 1 -12 -13 -13 -35 -1 -21 3 -38 8 -38 5 0 7 6 4 13 -3 8 0 14
7 14 15 0 15 -49 -1 -54 -7 -3 -9 -11 -6 -19 4 -12 8 -12 22 -2 14 12 15 11 2
-5 -8 -10 -20 -16 -28 -13 -7 3 -13 1 -13 -4 0 -6 7 -10 16 -10 10 0 14 -6 11
-14 -3 -8 -1 -17 6 -20 9 -3 8 -5 -1 -5 -7 -1 -10 -5 -7 -11 3 -6 -1 -7 -12
-4 -10 3 -7 -2 7 -10 l25 -15 -23 -1 c-13 0 -21 -4 -17 -10 3 -5 11 -8 18 -6
7 1 9 1 5 -1 -5 -3 -8 -14 -8 -25 0 -16 -3 -18 -14 -9 -11 9 -16 9 -22 0 -4
-7 -3 -9 3 -6 6 4 16 0 23 -8 7 -8 9 -15 4 -15 -5 0 2 -10 16 -21 l25 -20 -24
11 c-21 11 -23 10 -17 -5 3 -9 3 -22 -1 -28 -9 -14 -12 -47 -4 -43 3 2 15 -6
26 -17 l20 -20 -22 12 c-17 8 -22 8 -27 -5 -3 -8 -2 -13 3 -10 5 3 11 -1 15
-9 3 -8 0 -14 -6 -12 -7 1 -12 -13 -13 -35 -1 -21 3 -38 8 -38 5 0 7 6 4 13
-3 8 1 14 9 14 7 0 11 -4 8 -9 -3 -5 0 -17 8 -26 11 -15 11 -16 -3 -4 -13 10
-19 9 -30 -5 -8 -9 -9 -14 -4 -11 6 3 19 -4 30 -15 l20 -20 -22 12 c-17 8 -22
8 -27 -5 -3 -8 -2 -13 3 -10 5 3 11 -1 15 -9 3 -8 0 -14 -6 -12 -7 1 -12 -13
-13 -35 -1 -21 3 -38 8 -38 5 0 7 6 4 13 -3 8 0 14 7 14 15 0 15 -49 -1 -54
-7 -3 -9 -11 -6 -19 4 -12 8 -12 22 -2 14 12 15 11 2 -5 -8 -10 -20 -16 -28
-13 -7 3 -13 1 -13 -4 0 -6 7 -10 16 -10 10 0 14 -6 11 -14 -3 -8 -1 -17 6
-20 9 -3 8 -5 -1 -5 -7 -1 -10 -5 -7 -11 3 -6 -1 -7 -12 -4 -10 3 -7 -2 7 -10
l25 -15 -23 -1 c-13 0 -21 -4 -17 -10 3 -5 11 -8 18 -6 7 1 9 1 5 -1 -5 -3 -8
-14 -8 -25 0 -16 -3 -18 -14 -9 -11 9 -16 9 -22 0 -4 -7 -3 -9 3 -6 6 4 16 0
23 -8 7 -8 9 -15 4 -15 -5 0 2 -10 16 -21 l25 -20 -24 11 c-21 11 -23 10 -17
-5 3 -9 3 -22 -1 -28 -9 -14 -12 -47 -4 -43 3 2 15 -6 26 -17 l20 -20 -22 12
c-17 8 -22 8 -27 -5 -3 -8 -2 -13 3 -10 5 3 11 -1 15 -9 3 -8 0 -14 -6 -12 -7
1 -12 -13 -13 -35 -1 -21 3 -38 8 -38 5 0 7 6 4 13 -3 8 0 14 7 14 6 0 12 -8
12 -18 0 -10 -4 -16 -7 -13 -4 2 -10 0 -14 -6 -3 -5 2 -10 12 -11 14 0 15 -2
3 -6 -26 -10 -29 -26 -9 -41 21 -14 25 -32 8 -32 -5 0 -8 4 -4 9 3 5 1 12 -4
15 -5 4 -12 2 -15 -3 -4 -5 -2 -12 4 -16 5 -3 10 -15 10 -27 0 -18 -2 -19 -17
-7 -16 13 -17 12 -4 -3 7 -10 17 -16 21 -13 5 3 12 0 16 -6 4 -7 3 -9 -3 -6
-16 10 -21 -13 -17 -82 3 -58 2 -62 -14 -50 -13 11 -13 9 2 -8 16 -20 17 -25
5 -40 -8 -9 -9 -14 -4 -11 6 3 19 -4 30 -15 l20 -20 -22 12 c-17 8 -22 8 -27
-5 -3 -8 -2 -13 3 -10 5 3 11 -1 15 -9 3 -8 0 -14 -6 -12 -7 1 -12 -13 -13
-35 -1 -21 3 -38 8 -38 5 0 7 6 4 13 -3 8 0 14 7 14 15 0 15 -49 -1 -54 -7 -3
-9 -11 -6 -19 4 -12 8 -12 22 -2 14 12 15 11 2 -5 -8 -10 -20 -16 -28 -13 -7
3 -13 1 -13 -4 0 -6 7 -10 16 -10 10 0 14 -6 11 -14 -3 -8 -1 -17 6 -20 9 -3
8 -5 -1 -5 -7 -1 -10 -5 -7 -11 3 -6 -1 -7 -12 -4 -10 3 -7 -2 7 -10 l25 -15
-23 -1 c-13 0 -21 -4 -17 -10 3 -5 11 -8 18 -6 7 1 9 1 5 -1 -5 -3 -8 -14 -8
-25 0 -16 -3 -18 -14 -9 -11 9 -16 9 -22 0 -4 -7 -3 -9 3 -6 6 4 16 0 23 -8 7
-8 9 -15 4 -15 -5 0 2 -10 16 -21 l25 -20 -24 11 c-21 11 -23 10 -17 -5 3 -9
3 -22 -1 -28 -9 -14 -12 -47 -4 -43 3 2 15 -6 26 -17 l20 -20 -22 12 c-17 8
-22 8 -27 -5 -3 -8 -2 -13 3 -10 5 3 11 -1 15 -9 3 -8 0 -14 -6 -12 -7 1 -12
-13 -13 -35 -1 -21 3 -38 8 -38 5 0 7 6 4 13 -3 8 0 14 7 14 6 0 12 -8 12 -18
0 -10 -4 -16 -7 -13 -4 2 -10 0 -14 -6 -3 -5 2 -10 12 -11 14 0 15 -2 3 -6
-26 -10 -29 -26 -9 -41 21 -14 25 -32 8 -32 -5 0 -8 4 -4 9 3 5 1 12 -4 15 -5
4 -12 2 -15 -3 -4 -5 -2 -12 4 -16 5 -3 10 -15 10 -27 0 -18 -2 -19 -18 -7
-15 13 -16 12 -3 -3 7 -10 17 -16 21 -13 5 3 12 0 16 -6 4 -7 3 -9 -3 -6 -16
10 -21 -13 -17 -82 3 -58 2 -62 -14 -50 -14 11 -13 9 2 -8 24 -29 15 -62 -12
-42 -11 9 -9 5 4 -11 14 -16 20 -34 17 -52 -3 -23 -1 -27 14 -22 15 5 16 4 3
-5 -14 -10 -8 -15 15 -12 6 1 1 -7 -11 -16 -15 -14 -19 -27 -16 -52 3 -32 2
-34 -15 -21 -17 14 -17 14 -2 -5 9 -11 15 -30 13 -42 -2 -14 5 -31 19 -44 l22
-21 -22 11 c-14 7 -24 8 -28 1 -6 -9 1 -14 17 -11 5 0 7 -5 5 -12 -1 -6 4 -11
11 -10 16 4 15 -2 -4 -17 -8 -8 -14 -9 -12 -4 2 5 -1 11 -7 12 -5 2 -17 9 -25
15 -8 6 -5 0 6 -13 14 -16 20 -34 17 -52 -3 -23 -1 -27 14 -22 15 5 16 4 3 -5
-14 -10 -8 -15 15 -12 6 1 1 -7 -11 -16 -15 -14 -19 -27 -16 -52 3 -32 2 -34
-15 -21 -17 14 -17 14 -2 -5 9 -11 15 -30 13 -42 -2 -14 5 -30 19 -43 19 -18
19 -20 3 -14 -15 6 -17 4 -11 -6 5 -9 4 -11 -4 -6 -6 4 -8 12 -5 18 4 7 2 8
-4 4 -15 -9 -3 -36 17 -37 13 0 13 -2 1 -6 -26 -10 -29 -26 -9 -41 21 -14 25
-32 8 -32 -5 0 -8 4 -4 9 3 5 1 12 -4 15 -5 4 -12 2 -15 -3 -4 -5 -2 -12 4
-16 5 -3 10 -15 10 -27 0 -18 -2 -19 -18 -7 -15 13 -16 12 -3 -3 7 -10 17 -16
21 -13 5 3 12 0 16 -6 4 -7 3 -9 -3 -6 -16 10 -21 -13 -17 -82 3 -58 2 -62
-14 -50 -13 11 -13 9 2 -8 16 -20 17 -25 5 -40 -8 -9 -9 -14 -4 -11 6 3 19 -4
30 -15 l20 -20 -22 12 c-17 8 -22 8 -27 -5 -3 -8 -2 -13 3 -10 5 3 11 -1 15
-9 3 -8 0 -14 -6 -12 -7 1 -12 -13 -13 -35 -1 -21 3 -38 8 -38 5 0 7 6 4 13
-3 8 0 14 7 14 15 0 15 -49 -1 -54 -7 -3 -9 -11 -6 -19 4 -12 8 -12 22 -2 14
12 15 11 2 -5 -8 -10 -20 -16 -28 -13 -7 3 -13 1 -13 -4 0 -6 7 -10 16 -10 10
0 14 -6 11 -14 -3 -8 -1 -17 6 -20 9 -3 8 -5 -1 -5 -7 -1 -10 -5 -7 -11 3 -6
-1 -7 -12 -4 -10 3 -7 -2 7 -10 l25 -15 -23 -1 c-13 0 -21 -4 -17 -10 3 -5 11
-8 18 -6 7 1 9 1 5 -1 -5 -3 -8 -14 -8 -25 0 -16 -3 -18 -14 -9 -11 9 -16 9
-22 0 -4 -7 -3 -9 3 -6 6 4 16 0 23 -8 7 -8 9 -15 4 -15 -5 0 2 -10 16 -21
l25 -20 -24 11 c-21 11 -23 10 -17 -5 3 -9 3 -22 -1 -28 -9 -14 -12 -47 -4
-43 3 2 15 -6 26 -17 l20 -20 -22 12 c-17 8 -22 8 -27 -5 -3 -8 -2 -13 3 -10
5 3 11 -1 15 -9 3 -8 0 -14 -6 -12 -7 1 -12 -13 -13 -35 -1 -21 3 -38 8 -38 5
0 7 6 4 13 -3 8 0 14 7 14 6 0 12 -8 12 -18 0 -10 -4 -16 -7 -13 -4 2 -10 0
-14 -6 -3 -5 0 -10 7 -10 8 0 6 -5 -4 -11 -20 -11 -24 -29 -7 -29 5 0 7 5 4
10 -3 5 -1 10 5 10 7 0 10 -6 7 -14 -3 -8 -1 -17 6 -20 9 -3 9 -5 0 -5 -7 -1
-13 -8 -13 -17 0 -8 4 -13 8 -10 5 3 9 -1 9 -9 0 -11 -4 -12 -14 -3 -7 6 -16
8 -20 4 -3 -3 -1 -6 5 -6 16 0 15 -33 0 -49 -7 -7 -8 -12 -3 -11 20 4 35 0 35
-11 0 -5 -5 -7 -12 -3 -7 4 -8 3 -4 -5 4 -6 2 -20 -6 -29 -12 -16 -11 -16 6
-2 18 13 19 13 14 -1 -5 -12 -1 -15 18 -13 13 1 22 -2 18 -7 -3 -5 -8 -7 -12
-5 -4 2 -16 -2 -27 -10 -10 -8 -14 -14 -9 -14 6 0 15 5 22 12 9 9 12 9 12 -1
0 -7 5 -9 13 -5 7 4 9 3 4 -2 -5 -5 -13 -9 -18 -9 -5 0 -8 -4 -7 -10 0 -5 10
-9 21 -7 17 3 17 2 6 -11 -8 -8 -18 -12 -24 -9 -5 3 -2 -4 8 -15 10 -11 19
-30 20 -40 0 -11 7 -20 14 -20 9 0 10 4 2 13 -6 7 -8 17 -5 23 3 5 0 12 -6 14
-8 4 -9 6 -2 6 6 1 18 -7 25 -16 12 -14 12 -16 0 -9 -9 6 -12 5 -9 -5 3 -8 10
-13 16 -12 7 2 9 -4 5 -14 -5 -12 -3 -14 7 -8 8 5 11 4 6 -3 -4 -6 -12 -10
-19 -8 -7 1 -9 1 -4 -1 4 -3 4 -10 1 -15 -4 -6 -3 -8 2 -5 6 3 16 2 24 -3 12
-7 12 -10 -3 -16 -20 -7 -13 -24 11 -24 15 0 15 2 2 11 -13 9 -13 10 0 6 8 -2
15 -9 15 -15 0 -5 3 -14 7 -18 4 -4 3 -13 -3 -20 -7 -8 -6 -14 2 -20 7 -4 9
-3 6 4 -5 6 1 8 14 5 20 -6 20 -7 -7 -19 -16 -7 -22 -13 -14 -13 29 2 40 -1
40 -12 0 -5 -4 -8 -9 -4 -5 3 -13 0 -17 -6 -4 -7 -3 -9 3 -6 13 8 36 -17 26
-27 -4 -4 0 -4 10 0 10 3 17 1 17 -6 0 -6 6 -8 13 -4 9 6 10 4 0 -7 -7 -7 -13
-18 -13 -24 0 -5 5 -3 10 5 6 10 10 11 10 3 0 -7 6 -13 14 -13 8 0 18 -5 22
-11 4 -8 -1 -9 -17 -5 -13 3 -18 3 -11 0 6 -3 12 -12 12 -20 0 -8 5 -14 11
-14 5 0 8 4 5 8 -3 5 1 9 9 9 8 0 13 -5 12 -11 -1 -6 4 -10 11 -8 8 1 11 -2 8
-7 -3 -5 -15 -7 -26 -4 -12 3 -20 0 -20 -6 0 -7 4 -9 10 -6 5 3 17 2 26 -3 11
-6 13 -11 5 -16 -6 -4 -11 -12 -11 -18 0 -6 9 0 21 13 19 22 21 22 17 4 -1
-11 -7 -24 -13 -28 -5 -5 1 -6 15 -2 23 5 23 5 8 -8 -10 -8 -15 -17 -11 -20
10 -11 25 -8 18 3 -3 5 -1 10 5 10 6 0 10 -10 8 -22 -3 -20 1 -23 26 -20 26 3
28 1 24 -22 -3 -14 -2 -23 3 -21 4 3 10 1 14 -5 3 -5 11 -10 18 -10 6 0 2 7
-9 16 -18 15 -18 15 3 4 13 -6 27 -20 33 -33 11 -21 11 -21 -4 -3 -9 11 -16
15 -16 8 0 -6 10 -18 22 -26 13 -10 17 -16 9 -16 -8 0 -12 -3 -8 -6 3 -3 12
-2 19 2 32 20 44 8 25 -23 -5 -7 -6 -14 -3 -14 3 -1 9 -2 14 -3 4 -1 13 -5 21
-10 9 -6 12 -5 7 2 -3 6 -3 13 2 16 4 2 9 -4 9 -15 1 -10 -3 -19 -9 -19 -6 0
-8 -3 -5 -6 4 -4 14 -1 24 7 10 8 14 9 10 2 -5 -7 2 -17 15 -24 13 -7 24 -12
26 -11 1 1 8 2 15 2 8 0 8 -3 -2 -9 -12 -8 -13 -12 -2 -25 11 -13 17 -14 28
-5 11 10 12 9 7 -5 -5 -13 -2 -15 12 -9 17 6 17 5 5 -10 -8 -10 -11 -20 -7
-24 3 -3 6 -1 6 6 0 7 5 9 11 6 6 -4 8 -14 5 -24 -4 -10 1 -8 13 6 16 19 20
20 25 7 3 -8 2 -12 -4 -9 -6 3 -10 1 -10 -5 0 -6 10 -10 23 -8 17 2 21 -1 19
-16 -3 -17 -1 -18 11 -7 10 7 17 8 21 2 4 -5 -2 -15 -11 -21 -15 -8 -12 -9 12
-4 23 4 26 3 15 -5 -12 -9 -10 -11 13 -11 19 0 26 -4 21 -12 -5 -7 -1 -9 13
-6 12 3 20 0 20 -8 0 -7 -5 -10 -11 -7 -6 3 0 -6 14 -21 13 -14 30 -24 37 -21
8 2 16 -2 19 -10 4 -8 15 -15 26 -15 10 0 17 -4 13 -9 -10 -17 28 -30 50 -18
19 10 19 9 5 -8 -9 -11 -10 -16 -2 -11 6 4 12 2 12 -3 0 -6 5 -11 11 -11 5 0
8 4 5 8 -3 5 2 9 11 9 13 0 12 -4 -5 -17 -21 -17 -20 -18 28 -16 l49 1 -16
-25 c-9 -15 -10 -20 -2 -13 18 18 39 16 39 -3 0 -13 3 -14 14 -5 12 10 13 9 9
-7 -2 -11 1 -23 8 -28 9 -5 11 -2 6 9 -3 9 -2 19 4 22 5 4 8 1 7 -6 -2 -7 2
-13 9 -14 6 0 15 -3 19 -7 4 -4 14 -2 23 5 14 11 14 10 2 -5 -12 -17 -9 -23
12 -19 5 1 6 -3 2 -8 -3 -6 5 -15 17 -22 21 -11 22 -11 9 5 -12 14 -12 16 3
10 9 -3 16 -12 16 -19 0 -8 12 -15 28 -17 16 -2 26 -8 24 -17 -2 -9 3 -11 13
-7 11 4 15 2 12 -6 -2 -7 -10 -12 -16 -10 -7 1 -10 -2 -6 -8 5 -8 11 -8 20 0
8 7 20 8 27 4 20 -13 38 -13 38 -1 0 6 6 2 14 -8 8 -11 12 -23 9 -28 -6 -9 15
-37 28 -37 5 0 9 5 9 11 0 5 -4 8 -9 4 -5 -3 -12 -1 -15 4 -10 16 8 20 27 6
10 -7 16 -19 15 -26 -2 -7 6 -14 17 -16 l20 -3 -20 9 c-11 5 -14 10 -7 10 7 1
29 -6 50 -16 20 -9 41 -15 45 -14 5 1 6 -3 2 -9 -4 -6 -15 -4 -31 6 -13 9 -27
14 -30 11 -3 -3 4 -8 15 -12 12 -3 19 -10 17 -14 -7 -11 37 -11 51 1 9 7 13 7
13 -1 0 -6 -4 -11 -10 -11 -5 0 -10 -5 -10 -11 0 -5 4 -7 10 -4 5 3 10 1 10
-4 0 -6 4 -11 10 -11 5 0 8 6 6 13 -1 6 -1 9 1 4 3 -4 9 -4 15 -1 5 4 5 -4 -2
-16 -7 -12 -7 -20 -2 -16 6 3 12 3 15 -1 2 -5 2 -2 1 5 -2 6 1 12 6 12 9 0 15
-22 11 -43 -1 -5 3 -6 8 -2 6 3 8 12 5 19 -3 7 3 19 13 26 15 12 16 12 6 0
-15 -17 -17 -34 -3 -25 6 4 7 -1 3 -12 -6 -16 -5 -17 12 -3 17 14 18 13 12 -3
-4 -10 -3 -16 2 -13 5 3 11 0 14 -8 4 -9 14 -12 28 -9 16 5 20 3 14 -6 -5 -10
1 -12 29 -8 20 3 33 1 30 -4 -3 -5 -2 -14 2 -20 4 -8 9 -7 15 2 7 11 9 10 9
-5 0 -13 5 -17 20 -13 16 4 18 2 11 -11 -8 -15 -2 -17 42 -16 29 1 46 -1 39
-3 -10 -4 -8 -9 7 -20 12 -8 27 -11 34 -7 8 5 8 2 -2 -9 -12 -15 -11 -17 3
-17 10 0 14 -5 11 -10 -4 -6 -1 -9 7 -8 7 2 12 -3 10 -11 -2 -11 0 -12 11 -3
19 16 30 3 14 -17 -11 -14 -10 -14 6 -2 13 10 14 17 7 26 -8 9 -8 15 0 20 6 4
9 1 8 -7 -2 -7 2 -12 9 -11 7 2 10 -4 7 -12 -5 -11 -2 -13 12 -8 12 4 15 3 10
-5 -4 -7 -2 -12 4 -12 6 0 8 -5 4 -12 -4 -7 -3 -8 4 -4 6 4 9 13 5 21 -3 8 0
15 6 15 6 0 10 -6 9 -12 -2 -7 5 -13 14 -13 25 0 43 -21 27 -30 -8 -6 -10 -4
-4 5 5 8 4 11 -3 6 -6 -4 -8 -14 -5 -23 4 -11 8 -13 11 -5 2 7 10 12 18 12 9
0 12 -5 8 -12 -4 -6 -3 -8 3 -5 6 4 23 -4 39 -18 15 -13 31 -22 35 -20 4 3 12
-2 19 -10 7 -8 21 -15 32 -15 13 0 17 -4 12 -12 -5 -8 0 -7 11 2 11 9 16 10
11 3 -4 -7 -3 -13 3 -13 6 0 8 -8 4 -17 -5 -16 -4 -15 9 1 10 13 17 15 22 8
10 -16 29 -15 20 1 -4 7 -3 9 2 4 9 -9 10 -13 13 -42 0 -8 5 -15 11 -15 5 0 8
6 6 12 -1 7 -1 10 1 5 3 -4 9 -5 14 -1 5 3 9 2 8 -3 -5 -26 1 -30 57 -35 6 -1
9 -11 7 -22 -4 -21 -4 -21 12 -1 17 20 17 20 10 -5 -7 -24 -7 -24 12 -7 16 14
20 14 20 2 0 -8 -4 -12 -9 -9 -4 3 -8 0 -8 -7 0 -6 8 -9 20 -6 22 6 28 -8 8
-17 -7 -4 -3 -4 9 -2 13 2 26 -1 30 -6 3 -6 1 -8 -5 -4 -6 3 -13 2 -16 -3 -7
-11 13 -9 33 3 10 6 12 5 7 -2 -4 -7 -2 -12 4 -12 6 0 8 -4 5 -10 -3 -5 1 -10
10 -10 10 0 13 5 9 12 -4 7 -3 8 5 4 9 -6 9 -11 0 -22 -14 -17 2 -19 19 -2 9
9 15 9 25 -1 10 -10 9 -11 -5 -6 -13 5 -17 2 -15 -14 1 -12 5 -17 12 -12 13
10 46 10 40 0 -3 -4 -2 -14 1 -23 5 -13 9 -14 20 -5 8 7 17 9 21 5 3 -3 1 -6
-5 -6 -7 0 -12 -7 -12 -15 0 -8 5 -15 11 -15 5 0 7 -5 3 -12 -5 -7 -3 -8 7 -2
32 19 37 12 42 -53 0 -7 4 -10 9 -7 4 3 8 0 8 -6 0 -6 4 -8 10 -5 6 3 10 1 10
-4 0 -6 6 -11 13 -11 6 1 -1 11 -17 24 -18 15 -24 26 -17 30 6 4 14 0 17 -8 3
-9 11 -13 17 -9 5 3 7 1 3 -5 -3 -6 -2 -14 4 -17 8 -5 7 -11 -1 -21 -10 -12
-10 -15 2 -12 8 2 13 -3 11 -10 -1 -8 2 -11 7 -7 6 3 8 13 5 23 -5 14 -4 15 5
2 6 -8 11 -23 11 -32 0 -20 86 -84 106 -80 8 2 14 -3 14 -9 0 -7 3 -9 6 -6 4
4 1 13 -5 21 -10 12 -8 14 11 9 23 -4 23 -4 3 13 -17 14 -17 16 -2 11 9 -4 17
-2 17 3 0 6 6 10 13 10 6 0 18 4 26 9 12 8 12 14 -4 38 -13 19 -14 24 -3 16 8
-7 19 -9 23 -5 5 4 4 0 0 -8 -7 -12 -6 -13 7 -3 8 7 18 10 22 6 4 -4 4 1 0 11
-5 13 -1 22 11 28 12 8 14 12 5 18 -8 5 -7 9 5 13 9 4 13 3 10 -3 -3 -6 -2
-10 4 -10 12 0 42 41 36 50 -5 8 47 6 61 -3 6 -3 11 0 11 8 0 8 -5 11 -10 8
-6 -4 -8 1 -4 11 4 10 7 20 7 24 0 3 7 -3 16 -14 8 -10 13 -13 9 -6 -8 15 3
52 16 52 6 0 5 -9 -1 -23 -10 -19 -9 -20 2 -7 8 8 20 21 28 29 8 8 9 11 3 7
-9 -5 -11 -2 -7 9 5 12 9 13 20 4 17 -14 19 2 3 18 -9 9 -7 10 9 6 12 -3 19
-10 15 -16 -3 -6 -1 -7 5 -3 7 4 12 14 12 22 0 9 -5 12 -12 8 -7 -4 -8 -3 -4
4 5 8 13 9 26 2 15 -8 17 -6 13 13 -5 21 -5 21 10 2 14 -18 15 -18 12 7 -3 25
-1 26 23 17 25 -9 26 -8 8 6 -23 18 -14 20 17 3 20 -10 21 -10 8 6 -8 9 -10
16 -5 15 5 -1 20 -1 33 0 19 1 21 4 12 15 -10 12 -8 13 10 9 17 -5 20 -3 14 7
-6 10 -4 12 8 7 10 -3 17 -2 17 3 0 6 4 10 10 10 5 0 7 -7 3 -16 -3 -8 9 -1
28 15 18 17 37 31 42 31 4 0 5 5 1 12 -5 7 -2 9 9 5 9 -3 18 0 21 9 3 9 10 13
15 9 5 -3 12 -1 15 4 7 11 -13 9 -32 -3 -7 -4 -16 -5 -19 -2 -4 3 -1 6 6 6 7
0 10 4 7 8 -7 11 35 9 53 -2 10 -6 12 -5 7 2 -4 7 -2 12 4 12 6 0 8 5 5 10 -8
13 1 13 25 0 13 -7 21 -7 26 2 4 6 3 8 -3 5 -6 -4 -13 0 -16 8 -4 10 -1 12 10
8 11 -4 14 -2 9 5 -5 8 -2 10 8 6 9 -4 18 1 22 10 3 9 10 16 16 16 5 0 6 -5 2
-12 -5 -7 -3 -8 5 -4 7 5 10 15 7 23 -3 8 -2 12 3 8 5 -3 11 -2 14 2 2 5 3 3
1 -4 -1 -6 5 -10 14 -8 9 2 20 4 24 4 4 1 5 7 2 15 -3 8 0 17 7 22 8 4 10 3 5
-4 -4 -7 -2 -12 3 -12 6 0 11 6 11 14 0 18 22 26 57 21 15 -2 22 -2 16 1 -21
9 -15 23 7 17 11 -3 20 -10 20 -16 0 -6 2 -8 5 -5 9 8 -6 38 -16 32 -5 -3 -6
2 -2 11 4 13 8 14 14 4 4 -7 15 -14 23 -15 9 -1 14 2 10 7 -3 5 0 10 5 10 30
4 61 19 61 31 0 7 -5 6 -13 -1 -8 -6 -18 -7 -22 -3 -5 4 -5 1 0 -7 5 -10 4
-12 -4 -7 -6 4 -9 12 -5 17 3 5 9 7 14 4 4 -3 13 2 20 10 10 12 16 13 27 3 12
-10 18 -8 32 11 15 19 21 21 38 13 15 -9 20 -8 20 3 0 8 -4 12 -9 9 -4 -3 -16
0 -25 6 -16 10 -15 10 4 5 12 -3 24 -1 28 5 3 6 10 8 15 5 5 -3 16 5 24 17 9
12 16 17 16 11 0 -7 9 -11 20 -10 11 1 18 6 16 12 -2 5 -10 8 -17 7 -8 -2 -10
0 -6 4 11 12 37 14 37 3 0 -5 4 -9 10 -9 5 0 7 6 4 14 -3 8 0 17 7 22 8 4 10
3 5 -4 -4 -7 -3 -12 3 -12 5 0 12 9 16 19 4 14 14 18 35 17 17 -1 36 2 43 7 9
6 8 7 -4 4 -9 -3 -16 1 -16 8 0 10 7 11 24 4 16 -6 22 -5 20 4 -1 7 7 13 18
13 11 1 24 2 29 3 5 1 3 8 -4 16 -7 8 -17 12 -23 8 -6 -3 -7 -1 -3 6 6 9 11 9
22 1 7 -7 19 -10 26 -7 7 2 22 -3 33 -12 12 -9 15 -10 8 -1 -15 17 -17 34 -3
25 6 -4 7 1 3 12 -6 16 -5 17 12 3 16 -14 17 -13 11 8 -6 17 -4 21 8 16 9 -3
13 -11 9 -17 -3 -6 -1 -7 5 -3 7 4 12 16 12 27 0 22 10 24 29 7 11 -10 13 -10
7 0 -4 6 -2 12 4 12 6 0 9 4 6 8 -3 5 2 9 10 9 9 0 13 -6 10 -14 -3 -8 -1 -11
4 -8 6 3 10 14 10 25 0 14 6 17 23 13 18 -4 19 -3 7 6 -11 8 -12 11 -2 11 7 0
10 4 7 10 -3 6 1 7 9 4 9 -3 13 -11 9 -17 -3 -6 4 -3 16 6 13 8 31 13 40 10 9
-4 5 3 -9 16 -14 12 -20 20 -14 17 6 -3 19 1 30 8 10 8 25 11 33 8 9 -3 12 -1
7 6 -5 8 -1 10 10 5 10 -4 15 -2 11 4 -8 13 26 13 35 -1 5 -8 8 -7 8 1 0 7 7
10 18 7 14 -5 14 -4 2 4 -8 6 -19 8 -25 5 -5 -4 -7 -3 -3 2 4 4 2 15 -5 24
-10 14 -10 14 3 5 8 -6 24 -14 34 -18 17 -6 17 -5 5 11 -12 15 -12 16 4 10 9
-3 17 -2 17 4 0 6 4 7 10 4 5 -3 18 -1 27 5 16 11 16 11 1 6 -10 -3 -20 0 -24
7 -4 7 -4 9 1 5 4 -4 14 0 22 10 8 9 12 12 9 5 -10 -19 23 -9 39 13 10 12 14
14 12 4 -2 -8 -2 -12 0 -7 3 4 9 4 15 1 7 -4 7 0 0 13 -9 15 -7 19 9 20 13 1
17 -2 12 -10 -5 -9 -2 -8 9 0 8 7 18 10 21 7 4 -4 5 3 2 14 -3 15 1 20 14 17
12 -2 18 2 17 13 0 9 5 17 12 18 6 1 17 2 23 3 5 0 7 6 3 13 -5 7 -3 8 7 2 17
-11 58 -17 44 -7 -17 14 -15 30 7 49 12 11 19 14 16 9 -4 -6 4 -15 17 -21 24
-11 24 -11 7 14 l-16 25 24 -13 c23 -12 24 -12 11 4 -12 14 -12 16 4 9 15 -5
17 -3 12 12 -6 14 -5 15 6 7 9 -8 17 -8 27 0 13 8 12 9 -2 4 -12 -3 -15 -1
-11 9 4 12 9 12 26 3 20 -10 21 -10 8 6 -12 15 -12 16 5 9 17 -6 18 -5 4 12
-14 17 -14 18 8 6 12 -7 20 -17 16 -23 -4 -7 -3 -8 4 -4 9 5 9 13 2 26 -13 24
5 37 27 18 15 -12 15 -11 4 10 -11 21 -10 22 13 18 20 -4 24 -1 21 15 -4 20
16 22 45 4 13 -8 13 -7 1 8 -7 9 -18 14 -25 11 -6 -4 -1 4 11 16 19 20 24 21
38 10 14 -12 15 -10 5 16 -9 25 -8 27 4 11 18 -23 24 -21 21 8 -2 14 1 23 6
19 5 -3 7 -10 4 -15 -4 -5 -1 -9 5 -9 6 0 8 11 6 27 -4 20 -2 23 6 15 9 -9 16
-8 30 5 13 12 18 13 18 3 0 -7 2 -11 5 -8 3 3 1 17 -4 32 -8 19 -7 25 2 23 7
-1 11 4 10 11 -2 6 2 12 7 12 13 0 13 -6 -1 -33 -10 -22 -10 -22 6 -2 9 11 14
27 12 35 -4 17 28 20 54 5 12 -7 12 -6 1 7 -8 9 -20 14 -29 11 -12 -5 -11 -1
3 15 19 23 30 29 19 12 -3 -5 -1 -10 4 -10 6 0 11 5 11 11 0 5 4 8 9 5 11 -7
9 13 -3 33 -7 10 -6 12 4 6 10 -6 12 -4 6 10 -5 15 -4 16 9 5 9 -7 19 -9 23
-5 4 4 1 10 -6 12 -14 5 28 43 47 43 6 0 10 6 8 12 -1 7 4 12 12 10 12 -3 12
0 2 12 -11 13 -10 15 8 11 11 -2 24 1 27 7 4 6 3 8 -2 5 -6 -3 -16 -2 -24 4
-12 7 -9 9 10 10 14 0 19 3 13 6 -7 2 -13 9 -13 14 0 4 7 6 15 3 11 -4 13 -2
9 9 -3 8 0 18 7 23 8 4 10 3 5 -4 -5 -8 -2 -10 8 -6 9 3 13 11 9 18 -11 17
-12 37 -2 30 5 -3 6 -11 2 -17 -4 -7 1 -6 10 2 13 10 15 17 6 27 -14 17 2 18
21 1 8 -6 6 1 -4 17 -10 16 -12 25 -5 21 9 -6 11 -2 7 13 -4 12 -2 20 3 16 5
-3 9 0 9 5 0 6 5 11 11 11 6 0 7 -5 2 -12 -9 -16 -16 -54 -7 -46 3 3 7 14 9
25 1 10 9 17 16 15 11 -3 11 -1 2 9 -6 6 -9 19 -5 28 5 14 4 14 -14 1 -19 -14
-19 -14 0 8 19 22 32 30 21 13 -3 -5 -1 -12 4 -15 11 -7 9 13 -3 32 -8 14 15
13 25 -1 3 -5 9 -2 12 7 4 9 3 15 -1 15 -18 -3 -35 2 -29 8 4 3 1 13 -6 22
-10 14 -10 14 4 4 9 -7 20 -9 24 -5 5 4 5 0 0 -8 -7 -13 -6 -13 6 -1 11 10 11
15 2 18 -7 3 -13 9 -13 14 0 6 5 7 11 3 8 -5 10 1 7 19 -4 18 -1 24 9 20 15
-6 19 32 3 42 -21 13 -9 25 18 19 25 -6 26 -5 8 8 -10 8 -16 20 -12 26 9 15
26 16 26 1 0 -5 -5 -7 -12 -3 -7 5 -8 3 -3 -5 10 -18 27 2 19 22 -3 9 -11 14
-18 10 -6 -4 -5 1 3 10 7 9 18 14 24 10 6 -4 7 -1 3 6 -5 7 -14 10 -22 7 -8
-3 -14 -1 -14 4 0 9 14 14 32 11 4 0 5 6 1 14 -4 13 -8 13 -22 3 -15 -12 -15
-11 0 7 18 22 22 57 5 48 -6 -3 -6 0 1 7 9 10 9 16 -2 27 -14 14 -10 47 5 38
5 -3 12 0 16 6 4 8 3 9 -4 5 -7 -4 -12 -3 -12 3 0 5 6 12 12 14 8 4 7 6 -4 6
-9 1 -19 -5 -21 -11 -4 -10 -6 -10 -6 -1 -1 6 9 19 22 29 l22 16 -22 -5 c-13
-3 -23 -1 -23 4 0 5 8 9 18 9 13 0 14 2 3 9 -11 7 -11 10 0 15 8 3 4 4 -9 2
-12 -2 -20 0 -16 5 3 5 11 9 19 9 8 0 17 4 20 10 3 5 0 7 -7 5 -9 -4 -14 2
-15 16 -2 18 0 19 15 8 9 -8 7 -2 -6 13 -17 19 -20 28 -11 33 7 5 10 4 6 -2
-4 -6 0 -14 8 -17 12 -4 13 -1 7 12 -5 9 -7 27 -7 39 2 14 -2 20 -9 16 -7 -4
-7 -1 1 7 9 10 9 16 -2 27 -14 14 -10 47 5 38 5 -3 12 0 16 6 4 8 3 9 -4 5 -7
-4 -12 -3 -12 3 0 5 6 12 13 14 7 4 6 6 -5 6 -9 1 -19 -5 -21 -11 -4 -10 -6
-10 -6 -1 -1 6 9 19 22 29 l22 16 -22 -5 c-13 -3 -23 -1 -23 4 0 5 8 9 18 9
13 0 14 2 3 9 -11 7 -11 10 0 15 8 3 4 4 -9 2 -12 -2 -20 0 -16 5 3 5 11 9 19
9 8 0 17 4 20 10 3 5 0 7 -7 5 -9 -4 -14 2 -15 16 -2 18 0 19 15 8 9 -8 7 -2
-6 13 -17 19 -20 28 -11 33 7 5 10 4 6 -2 -4 -6 0 -14 8 -17 12 -4 13 -1 7 12
-5 9 -7 27 -7 39 2 14 -2 20 -9 16 -7 -4 -7 -1 1 7 9 10 9 16 -2 27 -14 14
-10 47 5 38 5 -3 12 0 16 6 4 8 3 9 -4 5 -7 -4 -12 -3 -12 3 0 5 6 12 12 14 8
4 7 6 -4 6 -9 1 -19 -5 -21 -11 -4 -10 -6 -10 -6 -1 -1 6 9 19 22 29 l22 16
-22 -5 c-13 -3 -23 -1 -23 4 0 5 8 9 18 9 13 0 14 2 3 9 -11 7 -11 10 0 15 8
3 4 4 -9 2 -12 -2 -20 0 -16 5 3 5 11 9 19 9 8 0 17 4 20 10 3 5 0 7 -7 5 -9
-4 -14 2 -15 16 -2 18 0 19 15 8 9 -8 7 -2 -6 13 -17 19 -20 28 -11 33 7 5 10
4 6 -2 -4 -6 0 -14 8 -17 12 -4 13 -1 7 12 -5 9 -7 27 -7 39 2 13 -2 20 -9 17
-6 -2 -4 1 5 7 15 11 15 14 -5 30 -17 15 -19 20 -8 31 11 11 12 10 7 -4 -5
-13 -2 -18 11 -18 11 0 15 3 9 8 -13 8 -13 22 -1 40 7 11 4 12 -13 3 -25 -14
-28 -4 -3 16 12 10 14 16 5 19 -7 3 -13 10 -13 15 0 6 5 7 10 4 6 -3 10 -2 10
3 0 6 -8 13 -17 17 -16 6 -15 9 7 27 24 21 24 21 3 15 -13 -3 -23 -1 -23 4 0
5 8 9 18 9 14 0 15 2 2 10 -10 6 -11 10 -2 10 6 0 12 5 12 11 0 5 -4 7 -10 4
-5 -3 -10 -1 -10 4 0 6 5 11 11 11 6 0 4 7 -5 15 -8 9 -13 22 -9 30 3 9 -1 23
-8 33 -12 15 -12 16 2 4 14 -10 18 -10 23 3 3 9 2 14 -2 11 -4 -3 -14 5 -22
17 -12 20 -12 21 4 8 9 -8 20 -11 24 -7 4 4 -1 12 -11 17 -9 6 -15 15 -11 20
3 5 0 18 -7 27 -11 14 -11 15 1 5 21 -19 26 -16 26 17 0 17 -4 30 -8 30 -5 0
-6 -10 -2 -22 8 -27 2 -23 -16 11 -6 13 -8 21 -2 17 5 -3 18 2 29 12 10 9 14
14 8 11 -5 -4 -17 0 -25 9 -13 14 -12 15 3 9 9 -3 19 -1 23 5 4 7 3 8 -4 4 -7
-4 -12 -2 -12 3 0 6 6 11 13 11 6 0 3 6 -8 12 -19 11 -19 11 0 19 17 7 18 8 3
8 -10 1 -18 6 -18 12 0 5 4 8 8 5 4 -2 9 4 9 15 1 10 -3 19 -8 19 -6 0 -8 -4
-5 -9 7 -11 -21 -8 -31 4 -4 4 -3 6 2 2 6 -3 19 1 30 9 10 8 15 14 10 14 -4 0
0 10 11 22 12 14 13 18 3 10 -9 -6 -19 -9 -22 -5 -4 3 1 12 11 20 16 12 16 13
-2 6 -14 -4 -17 -2 -14 8 3 8 11 13 17 11 7 -1 10 2 6 8 -3 6 -11 8 -16 5 -9
-6 -13 8 -10 33 1 8 -4 21 -11 30 -11 15 -11 15 3 4 14 -10 18 -10 23 3 3 9 2
14 -2 11 -4 -3 -14 5 -22 17 -12 20 -12 21 4 8 9 -8 20 -11 24 -7 4 4 -1 12
-11 17 -9 6 -15 15 -11 20 3 5 0 18 -7 27 -11 14 -11 15 1 5 21 -19 29 -16 25
12 -1 14 2 25 7 25 6 0 0 9 -13 19 -20 16 -22 22 -11 33 11 11 12 10 7 -4 -5
-13 -2 -18 11 -18 14 0 16 2 6 9 -19 12 -19 15 -2 36 14 17 14 17 -7 6 -27
-14 -30 -4 -5 16 12 10 14 16 5 19 -7 3 -13 10 -13 15 0 6 5 7 10 4 6 -3 10
-2 10 3 0 6 -8 13 -17 17 -16 6 -15 9 7 27 24 21 24 21 3 15 -13 -3 -23 -1
-23 4 0 5 8 9 18 9 14 0 15 2 2 10 -10 6 -11 10 -2 10 6 0 12 5 12 11 0 5 -4
7 -10 4 -5 -3 -10 -1 -10 4 0 6 5 11 11 11 6 0 4 7 -5 15 -15 16 -11 49 5 39
14 -8 10 6 -6 22 -14 15 -10 48 5 39 5 -3 12 0 16 6 4 8 3 9 -4 5 -7 -4 -12
-3 -12 3 0 5 6 12 13 14 7 4 6 6 -5 6 -9 1 -19 -5 -21 -11 -4 -10 -6 -10 -6
-1 -1 6 9 19 22 29 l22 16 -22 -5 c-13 -3 -23 -1 -23 4 0 5 8 9 18 9 13 0 14
2 3 9 -11 7 -11 10 0 15 8 3 4 4 -9 2 -12 -2 -20 0 -16 5 3 5 11 9 19 9 8 0
17 4 20 10 3 5 0 7 -7 5 -9 -4 -14 2 -15 16 -2 18 0 19 15 8 9 -8 7 -2 -6 13
-17 19 -20 28 -11 33 7 5 10 4 6 -2 -4 -6 0 -14 8 -17 12 -4 13 -1 7 12 -5 9
-7 27 -7 39 2 14 -2 20 -9 16 -7 -4 -7 -1 1 7 9 10 9 16 -2 27 -14 14 -10 47
5 38 5 -3 12 0 16 6 4 8 3 9 -4 5 -7 -4 -12 -3 -12 3 0 5 6 12 13 14 7 4 6 6
-5 6 -9 1 -19 -5 -21 -11 -4 -10 -6 -10 -6 -1 -1 6 9 19 22 29 l22 16 -22 -5
c-13 -3 -23 -1 -23 4 0 5 8 9 18 9 13 0 14 2 3 9 -11 7 -11 10 0 15 8 3 4 4
-9 2 -12 -2 -20 0 -16 5 3 5 11 9 19 9 8 0 17 4 20 10 3 5 0 7 -7 5 -9 -4 -14
2 -15 16 -2 18 0 19 15 8 9 -8 7 -2 -6 13 -17 19 -20 28 -11 33 7 5 10 4 6 -2
-4 -6 0 -14 8 -17 12 -4 13 -1 7 12 -5 9 -7 27 -7 39 2 14 -2 20 -9 16 -7 -4
-7 -1 1 7 9 10 9 16 -2 27 -14 14 -10 47 5 38 5 -3 12 0 16 6 4 8 3 9 -4 5 -7
-4 -12 -3 -12 3 0 5 6 12 13 14 7 4 6 6 -5 6 -9 1 -19 -5 -21 -11 -4 -10 -6
-10 -6 -1 -1 6 9 19 22 29 l22 16 -22 -5 c-13 -3 -23 -1 -23 4 0 5 8 9 18 9
13 0 14 2 3 9 -11 7 -11 10 0 15 8 3 4 4 -9 2 -12 -2 -20 0 -16 5 3 5 11 9 19
9 8 0 17 4 20 10 3 5 0 7 -7 5 -9 -4 -14 2 -15 16 -2 18 0 19 15 8 9 -8 7 -2
-6 13 -17 19 -20 28 -11 33 7 5 10 4 6 -2 -4 -6 0 -14 8 -17 12 -4 13 -1 7 12
-5 9 -7 27 -7 39 2 14 -2 20 -9 16 -7 -4 -7 -1 1 7 9 10 9 16 -2 27 -14 14
-10 47 5 38 5 -3 12 0 16 6 4 8 3 9 -4 5 -7 -4 -12 -3 -12 3 0 5 6 12 13 14 7
4 6 6 -5 6 -9 1 -19 -5 -21 -11 -4 -10 -6 -10 -6 -1 -1 6 9 19 22 29 l22 16
-22 -5 c-13 -3 -23 -1 -23 4 0 5 8 9 18 9 13 0 14 2 3 9 -11 7 -11 10 0 15 8
3 4 4 -9 2 -12 -2 -20 0 -16 5 3 5 11 9 19 9 8 0 17 4 20 10 3 5 0 7 -7 5 -9
-4 -14 2 -15 16 -2 18 0 19 15 8 9 -8 7 -2 -6 13 -17 19 -20 28 -11 33 7 5 10
4 6 -2 -4 -6 0 -14 8 -17 12 -4 13 -1 7 12 -5 9 -7 27 -7 39 2 13 -2 20 -9 17
-6 -2 -4 1 5 7 15 11 15 14 -5 30 -17 15 -19 20 -8 31 11 11 12 10 7 -4 -5
-13 -2 -18 11 -18 14 0 16 2 6 9 -16 9 -15 20 1 40 10 12 9 12 -10 2 -27 -14
-30 -4 -5 16 12 10 14 16 5 19 -7 3 -13 10 -13 15 0 6 5 7 10 4 6 -3 10 -2 10
3 0 6 -8 13 -17 17 -16 6 -15 9 7 27 24 21 24 21 3 15 -13 -3 -23 -1 -23 4 0
5 8 9 18 9 14 0 15 2 2 10 -10 6 -11 10 -2 10 6 0 12 5 12 11 0 5 -4 7 -10 4
-5 -3 -10 -1 -10 4 0 6 5 11 11 11 6 0 4 7 -5 15 -8 9 -13 22 -9 30 3 9 -1 23
-8 33 -12 15 -12 16 2 4 14 -10 18 -10 23 3 3 9 2 14 -2 11 -4 -3 -14 5 -22
17 -12 20 -12 21 4 8 9 -8 20 -11 24 -7 4 4 -1 12 -11 17 -9 6 -15 15 -11 20
3 5 0 18 -7 27 -11 14 -11 15 1 5 21 -19 26 -16 26 17 0 17 -4 30 -8 30 -5 0
-6 -10 -2 -22 8 -27 2 -23 -16 11 -6 13 -8 21 -2 17 5 -3 18 2 29 12 10 9 14
14 8 11 -5 -4 -17 0 -25 9 -13 14 -12 15 3 9 9 -3 19 -1 23 5 4 7 3 8 -4 4 -7
-4 -12 -2 -12 3 0 6 6 11 13 11 6 0 3 6 -8 12 -19 11 -19 11 0 19 17 7 18 8 3
8 -10 1 -18 6 -18 12 0 5 4 8 8 5 4 -2 9 4 9 15 1 10 -3 19 -8 19 -6 0 -8 -4
-5 -8 3 -5 -1 -9 -9 -9 -20 0 -19 4 9 30 24 23 24 23 5 35 -11 7 -17 17 -14
22 3 6 1 10 -4 10 -6 0 -11 -4 -11 -10 0 -5 -5 -10 -11 -10 -5 0 -8 4 -5 9 3
5 -1 11 -9 14 -9 4 -12 1 -8 -9 3 -9 -2 -14 -17 -14 -11 0 -19 -4 -16 -9 7
-10 -34 -8 -51 2 -6 4 -17 -1 -24 -11 -13 -15 -12 -16 3 -4 11 9 18 10 23 2 4
-6 3 -10 -2 -9 -4 1 -10 0 -13 -1 -19 -7 -39 -7 -34 1 10 16 -8 10 -23 -8 -8
-10 -12 -12 -8 -5 10 19 -13 14 -25 -5 -11 -17 -11 -17 -6 -1 3 10 1 20 -3 23
-5 2 -11 -4 -14 -15 -3 -11 -9 -20 -14 -19 -21 4 -34 -2 -27 -13 5 -7 3 -8 -5
-4 -9 6 -8 13 5 27 13 15 19 17 26 7 5 -9 8 -10 8 -1 0 19 -17 24 -30 8 -15
-18 -34 -20 -24 -2 4 6 -2 4 -13 -6 -21 -18 -58 -14 -46 6 3 6 1 7 -5 3 -6 -4
-9 -13 -6 -21 4 -8 11 -12 18 -8 6 4 5 0 -2 -9 -8 -9 -20 -14 -29 -11 -12 5
-12 7 -1 14 9 6 9 9 1 9 -6 0 -15 -5 -19 -11 -4 -8 -9 -7 -15 2 -6 10 -9 10
-9 2 0 -7 8 -16 18 -22 15 -9 15 -10 -5 -8 -12 0 -21 4 -21 7 2 18 -3 30 -12
30 -6 0 -10 -8 -8 -17 2 -10 -2 -18 -9 -18 -6 0 -14 -3 -18 -7 -11 -11 -36 3
-28 16 4 6 -1 5 -10 -3 -9 -7 -15 -16 -13 -20 6 -9 -51 -7 -60 1 -4 4 3 5 15
3 12 -2 19 0 16 5 -3 6 1 7 9 4 9 -3 16 -2 16 4 0 8 -28 9 -37 2 -2 -2 -9 -3
-15 -4 -7 -1 -12 -6 -11 -12 1 -5 -9 -14 -23 -21 -13 -6 -22 -7 -18 -2 6 10 5
10 -44 14 -28 2 -32 0 -27 -19 3 -12 2 -15 -1 -8 -3 6 -10 10 -15 6 -5 -3 -9
3 -9 13 0 15 -2 15 -9 3 -6 -8 -7 -18 -5 -22 3 -4 -2 -5 -11 -1 -13 5 -14 7
-3 14 7 5 8 9 2 9 -17 0 -25 -12 -14 -25 7 -8 5 -12 -5 -12 -8 0 -15 5 -15 10
0 5 -8 3 -17 -4 -9 -8 -14 -9 -10 -3 4 7 0 14 -8 17 -9 4 -12 1 -8 -9 4 -10 0
-12 -11 -8 -9 3 -13 11 -9 18 4 7 1 7 -9 -1 -8 -7 -19 -9 -23 -5 -5 4 -5 1 -1
-5 4 -7 3 -13 -1 -13 -5 0 -15 6 -22 13 -9 8 -7 0 3 -23 14 -29 14 -32 1 -16
-8 11 -15 16 -16 10 -1 -5 -5 2 -9 16 l-8 25 -1 -24 c-1 -24 -1 -24 -17 -5 -8
10 -13 14 -11 9 3 -6 -2 -19 -10 -30 -14 -18 -15 -18 -9 -2 3 11 4 23 1 27 -7
11 -35 1 -35 -12 0 -6 8 -4 18 3 14 11 13 10 -2 -9 -20 -23 -27 -27 -25 -14 3
20 -2 33 -11 27 -6 -4 -8 -12 -4 -18 3 -7 -2 -3 -10 7 -14 17 -16 18 -16 3 0
-9 -5 -17 -11 -17 -5 0 -7 -5 -3 -12 5 -7 3 -8 -5 -4 -7 5 -10 15 -7 23 3 8 1
11 -4 8 -6 -3 -10 -12 -10 -20 0 -8 -4 -16 -9 -19 -5 -4 -7 2 -4 13 3 10 0 22
-6 25 -6 4 -9 1 -5 -7 3 -8 0 -18 -7 -23 -7 -4 -10 -3 -6 3 4 6 -2 13 -13 16
-11 3 -18 1 -15 -3 3 -5 1 -12 -5 -15 -6 -4 -9 -1 -8 7 3 14 -13 15 -51 3 -18
-5 -22 -4 -16 6 6 11 5 11 -4 3 -10 -9 -10 -17 -1 -35 9 -20 9 -21 -2 -9 -16
19 -36 19 -49 0 -9 -13 -10 -12 -5 3 3 9 2 17 -2 18 -36 5 -61 5 -57 -1 2 -3
-5 -11 -15 -18 -16 -9 -22 -8 -32 6 -7 9 -20 18 -28 20 -12 3 -13 1 -2 -9 6
-7 12 -17 12 -23 0 -5 -8 0 -17 10 -23 25 -53 33 -33 9 11 -13 10 -14 -5 -9
-13 5 -16 4 -11 -4 11 -18 0 -14 -15 5 -10 11 -10 14 -1 9 6 -4 12 -3 12 3 0
5 -9 9 -20 8 -23 -1 -25 -8 -7 -26 9 -10 7 -10 -11 0 -19 12 -24 12 -32 -1 -5
-8 -10 -10 -10 -5 0 6 5 16 12 23 16 16 -3 15 -24 -2 -10 -7 -14 -17 -10 -21
4 -5 1 -5 -6 -1 -10 6 -10 11 -1 22 15 18 7 18 -38 -1 -32 -13 -34 -13 -23 0
7 9 10 18 6 22 -3 3 -6 1 -6 -5 0 -6 -9 -14 -20 -17 -11 -4 -17 -11 -14 -17 4
-7 2 -8 -4 -4 -7 4 -12 15 -13 24 0 14 -2 13 -9 -3 -7 -17 -9 -17 -9 -2 -1 9
-6 17 -12 17 -5 0 -7 -6 -3 -12 4 -7 -3 -4 -16 7 l-24 20 18 -28 17 -28 -26
17 c-24 16 -25 16 -19 -2 6 -18 6 -18 -8 0 -15 19 -15 19 -27 0 -11 -16 -12
-17 -7 -1 4 13 1 17 -12 15 -12 -2 -16 3 -14 17 2 15 1 17 -7 6 -5 -8 -7 -21
-4 -30 4 -14 3 -14 -9 -1 -18 21 -46 27 -29 6 9 -11 9 -16 0 -22 -7 -4 -10 -3
-7 2 3 5 0 15 -8 22 -13 12 -18 8 -15 -10 0 -4 -6 -5 -14 -2 -8 4 -15 1 -15
-6 0 -6 -5 -8 -11 -5 -6 5 -3 13 10 22 12 8 21 20 21 26 0 7 -5 5 -10 -4 -7
-13 -19 -16 -46 -12 -29 4 -35 2 -28 -9 6 -10 5 -11 -8 -1 -8 7 -18 10 -22 6
-4 -4 -4 1 0 11 6 16 5 17 -15 4 -18 -11 -23 -11 -30 1 -5 8 -16 11 -25 8 -16
-6 -23 7 -8 16 4 2 1 2 -7 0 -8 -2 -11 2 -7 12 8 22 -2 18 -15 -6 -7 -15 -8
-19 0 -15 7 5 8 1 4 -11 -6 -14 -9 -12 -20 15 -15 37 -24 42 -16 10 5 -23 5
-23 -12 -3 -12 14 -15 15 -12 4 3 -9 -1 -16 -8 -16 -8 0 -13 3 -12 6 1 3 -2 6
-6 6 -5 0 -15 11 -24 25 -8 14 -12 17 -9 8 3 -12 1 -15 -10 -11 -8 3 -14 -1
-14 -8 0 -10 -3 -10 -8 -3 -15 22 -48 34 -62 21 -10 -9 -11 -9 -6 1 4 6 2 12
-4 12 -7 0 -9 9 -6 23 3 12 3 16 0 9 -3 -6 -11 -9 -16 -6 -7 4 -8 2 -4 -4 5
-8 1 -10 -10 -5 -14 5 -16 3 -11 -13 6 -14 2 -13 -13 6 -17 21 -19 22 -14 5 5
-16 4 -17 -5 -5 -6 8 -8 24 -6 35 3 11 2 14 -1 8 -9 -21 -44 -16 -38 5 5 16 5
16 -6 0 -6 -10 -16 -18 -22 -18 -9 0 -9 3 0 12 7 7 12 17 12 23 0 5 -5 3 -10
-5 -8 -13 -13 -13 -31 -2 -11 8 -19 10 -16 5 3 -4 -6 -9 -19 -9 -22 -2 -23 -1
-8 10 13 10 14 15 4 21 -9 5 -11 4 -6 -3 4 -7 2 -12 -3 -12 -10 0 -15 13 -12
32 1 8 -33 3 -49 -7 -6 -3 -10 -2 -10 3 0 6 -12 13 -26 16 -24 6 -25 8 -9 20
17 12 17 13 1 19 -9 4 -15 3 -12 -1 2 -4 -4 -8 -14 -8 -18 0 -18 1 -2 20 9 11
11 16 5 12 -7 -4 -13 -2 -13 3 0 6 -8 11 -17 11 -15 0 -16 -2 -3 -10 13 -8 13
-11 1 -22 -9 -8 -11 -9 -7 -1 3 6 2 14 -3 18 -6 3 -7 13 -4 23 5 13 3 14 -7 5
-9 -9 -17 -9 -31 0 -16 10 -16 13 -4 27 13 15 13 17 0 17 -8 0 -12 -4 -9 -9 3
-4 -2 -8 -10 -8 -9 0 -13 6 -10 14 3 8 0 17 -5 21 -6 3 -8 11 -5 17 4 7 2 8
-5 4 -9 -6 -9 -11 -1 -21 8 -10 8 -15 -1 -21 -7 -4 -9 -3 -6 3 4 6 0 16 -9 23
-8 7 -11 16 -6 19 5 3 -4 16 -19 29 -19 16 -30 19 -35 11 -4 -7 -3 -9 4 -5 6
3 13 2 17 -4 3 -5 -1 -10 -10 -10 -9 0 -19 9 -22 21 -4 15 -11 19 -27 15 -20
-5 -20 -4 -2 9 18 13 18 14 -3 12 -11 -1 -21 -6 -21 -11 0 -5 -3 -6 -6 -3 -4
4 -1 14 7 23 12 15 11 16 -11 9 -23 -7 -24 -7 -10 10 9 11 10 16 3 11 -12 -6
-17 4 -15 25 1 4 -14 5 -33 3 -19 -1 -35 2 -35 7 0 6 4 7 10 4 6 -3 7 1 4 10
-5 13 -9 13 -22 3 -13 -11 -14 -11 -7 1 6 10 4 13 -6 9 -8 -3 -23 0 -34 8 -10
8 -14 14 -9 14 6 0 14 -4 20 -10 6 -6 15 -5 24 1 13 9 12 10 -2 5 -10 -3 -20
0 -24 5 -3 6 -14 9 -23 6 -23 -6 -43 17 -28 32 9 9 8 11 -7 5 -11 -4 -22 -2
-28 7 -7 11 -11 11 -15 2 -2 -7 -10 -13 -16 -13 -8 0 -8 3 0 11 9 9 8 15 -2
25 -17 17 -29 18 -19 2 5 -8 1 -8 -10 1 -9 8 -15 23 -13 32 5 20 -15 43 -28
31 -5 -4 -5 1 -1 12 5 13 2 17 -9 13 -8 -4 -17 -1 -21 5 -4 7 -3 8 4 4 20 -12
13 23 -8 44 -22 22 -26 40 -9 40 5 0 8 -4 5 -8 -2 -4 -1 -14 4 -22 8 -12 11
-13 22 -2 7 8 9 13 3 12 -22 -5 -27 1 -14 18 7 9 10 14 5 10 -5 -4 -15 0 -23
8 -8 8 -19 12 -24 9 -5 -4 -9 -1 -9 5 0 7 7 10 15 7 8 -4 17 -2 20 4 4 5 1 8
-6 7 -6 -2 -20 11 -31 29 l-19 31 25 -2 c14 -2 23 1 20 5 -3 5 -14 9 -24 9
-15 0 -19 6 -17 23 1 15 -3 22 -15 21 -10 -1 -17 1 -16 5 2 11 -15 46 -26 53
-7 5 -7 8 2 8 7 0 18 -11 24 -25 12 -28 25 -33 25 -10 0 8 -4 12 -9 9 -7 -5
-12 10 -9 29 1 5 -3 6 -8 3 -5 -3 -12 1 -15 10 -5 14 -9 14 -23 3 -14 -12 -16
-12 -11 1 3 8 -2 22 -10 30 -14 13 -15 12 -9 -3 3 -9 2 -17 -3 -17 -9 0 -14
13 -12 31 1 3 -5 6 -13 6 -8 0 -12 -3 -10 -7 2 -3 -1 -12 -6 -20 -8 -12 -9
-11 -7 4 2 13 -4 20 -20 22 -16 3 -21 0 -16 -8 4 -7 3 -8 -5 -4 -9 6 -9 11 -1
21 8 10 8 15 -1 21 -7 4 -9 3 -6 -3z m312 -453 c3 -5 1 -10 -4 -10 -6 0 -11 5
-11 10 0 6 2 10 4 10 3 0 8 -4 11 -10z m270 -211 c-4 -5 -12 -9 -18 -8 -9 0
-8 2 1 6 6 2 9 10 6 15 -4 7 -2 8 5 4 6 -4 9 -12 6 -17z m150 -109 c3 -5 1
-10 -4 -10 -6 0 -11 5 -11 10 0 6 2 10 4 10 3 0 8 -4 11 -10z m-822 -105 c-3
-9 -8 -14 -10 -11 -3 3 -2 9 2 15 9 16 15 13 8 -4z m1093 -107 c4 -7 3 -8 -4
-4 -7 4 -12 2 -12 -5 0 -7 -3 -10 -6 -6 -6 5 3 27 11 27 2 0 7 -5 11 -12z
m2704 -3 c0 -12 -19 -12 -23 0 -4 9 -1 12 9 8 7 -3 14 -7 14 -8z m-3836 -16
c-3 -5 -10 -7 -15 -3 -5 3 -7 10 -3 15 3 5 10 7 15 3 5 -3 7 -10 3 -15z m3493
-22 c0 -8 -6 -14 -14 -14 -9 0 -10 4 -2 14 6 7 12 13 14 13 1 0 2 -6 2 -13z
m-3487 -3 c0 -8 -19 -13 -24 -6 -3 5 1 9 9 9 8 0 15 -2 15 -3z m-2116 -19 c-3
-6 -11 -12 -18 -12 -8 0 -12 6 -10 12 3 6 11 12 18 12 8 0 12 -6 10 -12z
m5946 -59 c0 -3 -4 -8 -10 -11 -5 -3 -10 -1 -10 4 0 6 5 11 10 11 6 0 10 -2
10 -4z m-6340 -29 c0 -2 -8 -3 -18 -4 -10 -1 -19 5 -19 12 0 10 5 11 19 4 10
-5 18 -11 18 -12z m5445 14 c3 -5 2 -12 -3 -15 -5 -3 -9 1 -9 9 0 17 3 19 12
6z m-4391 -32 c-3 -5 -10 -7 -15 -3 -5 3 -7 10 -3 15 3 5 10 7 15 3 5 -3 7
-10 3 -15z m39 -3 c4 -10 1 -13 -8 -9 -8 3 -12 9 -9 14 7 12 11 11 17 -5z
m120 -13 c-3 -7 -6 -13 -8 -13 -2 0 -5 6 -8 13 -3 8 1 14 8 14 7 0 11 -6 8
-14z m3881 2 c-4 -8 -11 -12 -16 -9 -6 4 -5 10 3 15 19 12 19 11 13 -6z
m-3664 -15 c0 -5 -2 -10 -4 -10 -3 0 -8 5 -11 10 -3 6 -1 10 4 10 6 0 11 -4
11 -10z m-1445 -229 c3 -5 2 -12 -3 -15 -5 -3 -9 1 -9 9 0 17 3 19 12 6z m10
-81 c4 -6 -1 -7 -11 -3 -13 5 -15 3 -9 -7 5 -9 4 -11 -4 -6 -6 4 -9 12 -6 17
8 12 22 12 30 -1z m5 -123 c0 -2 -8 -3 -18 -4 -10 -1 -19 5 -19 12 0 10 5 11
19 4 10 -5 18 -11 18 -12z m6325 -46 c3 -5 2 -12 -3 -15 -5 -3 -9 1 -9 9 0 17
3 19 12 6z m15 -45 c0 -3 -4 -8 -10 -11 -5 -3 -10 -1 -10 4 0 6 5 11 10 11 6
0 10 -2 10 -4z m-6340 -69 c0 -2 -8 -3 -18 -4 -10 -1 -19 5 -19 12 0 10 5 11
19 4 10 -5 18 -11 18 -12z m6340 -251 c0 -3 -4 -8 -10 -11 -5 -3 -10 -1 -10 4
0 6 5 11 10 11 6 0 10 -2 10 -4z m-6355 -25 c3 -5 2 -12 -3 -15 -5 -3 -9 1 -9
9 0 17 3 19 12 6z m10 -81 c4 -6 -1 -7 -11 -3 -13 5 -15 3 -9 -7 5 -9 4 -11
-4 -6 -6 4 -9 12 -6 17 8 12 22 12 30 -1z m5 -123 c0 -2 -8 -3 -18 -4 -10 -1
-19 5 -19 12 0 10 5 11 19 4 10 -5 18 -11 18 -12z m0 -93 c0 -8 -19 -13 -24
-6 -3 5 1 9 9 9 8 0 15 -2 15 -3z m6340 2 c0 -3 -4 -8 -10 -11 -5 -3 -10 -1
-10 4 0 6 5 11 10 11 6 0 10 -2 10 -4z m-6350 -206 c0 -5 -5 -10 -11 -10 -5 0
-7 5 -4 10 3 6 8 10 11 10 2 0 4 -4 4 -10z m6350 -114 c0 -3 -4 -8 -10 -11 -5
-3 -10 -1 -10 4 0 6 5 11 10 11 6 0 10 -2 10 -4z m-6340 -69 c0 -2 -8 -3 -18
-4 -10 -1 -19 5 -19 12 0 10 5 11 19 4 10 -5 18 -11 18 -12z m-15 -276 c3 -5
2 -12 -3 -15 -5 -3 -9 1 -9 9 0 17 3 19 12 6z m10 -81 c4 -6 -1 -7 -11 -3 -13
5 -15 3 -9 -7 5 -9 4 -11 -4 -6 -6 4 -9 12 -6 17 8 12 22 12 30 -1z m5 -123
c0 -2 -8 -3 -18 -4 -10 -1 -19 5 -19 12 0 10 5 11 19 4 10 -5 18 -11 18 -12z
m6340 -81 c0 -12 -5 -7 -19 24 -11 24 -11 24 3 6 9 -11 16 -24 16 -30z m-6340
-12 c0 -8 -19 -13 -24 -6 -3 5 1 9 9 9 8 0 15 -2 15 -3z m-10 -204 c0 -5 -5
-10 -11 -10 -5 0 -7 5 -4 10 3 6 8 10 11 10 2 0 4 -4 4 -10z m6350 -34 c0 -3
-4 -8 -10 -11 -5 -3 -10 -1 -10 4 0 6 5 11 10 11 6 0 10 -2 10 -4z m-6351 -73
c-6 -7 -15 -10 -20 -7 -13 8 -3 21 15 21 12 0 13 -4 5 -14z m1 -32 c0 -6 -4
-12 -8 -15 -5 -3 -9 1 -9 9 0 8 4 15 9 15 4 0 8 -4 8 -9z m6350 -15 c0 -3 -4
-8 -10 -11 -5 -3 -10 -1 -10 4 0 6 5 11 10 11 6 0 10 -2 10 -4z m-6350 -86 c0
-5 -5 -10 -11 -10 -5 0 -7 5 -4 10 3 6 8 10 11 10 2 0 4 -4 4 -10z m-5 -59 c3
-5 2 -12 -3 -15 -5 -3 -9 1 -9 9 0 17 3 19 12 6z m10 -41 c3 -6 -1 -7 -9 -4
-18 7 -21 14 -7 14 6 0 13 -4 16 -10z m-5 -119 c0 -6 -4 -12 -8 -15 -5 -3 -9
1 -9 9 0 8 4 15 9 15 4 0 8 -4 8 -9z m0 -101 c0 -5 -5 -10 -11 -10 -5 0 -7 5
-4 10 3 6 8 10 11 10 2 0 4 -4 4 -10z m-5 -59 c3 -5 2 -12 -3 -15 -5 -3 -9 1
-9 9 0 17 3 19 12 6z m10 -41 c3 -6 -1 -7 -9 -4 -18 7 -21 14 -7 14 6 0 13 -4
16 -10z m6330 -49 c3 -5 2 -12 -3 -15 -5 -3 -9 1 -9 9 0 17 3 19 12 6z m-6325
-47 c0 -8 -19 -13 -24 -6 -3 5 1 9 9 9 8 0 15 -2 15 -3z m6340 2 c0 -3 -4 -8
-10 -11 -5 -3 -10 -1 -10 4 0 6 5 11 10 11 6 0 10 -2 10 -4z m-6350 -206 c0
-5 -5 -10 -11 -10 -5 0 -7 5 -4 10 3 6 8 10 11 10 2 0 4 -4 4 -10z m6350 -114
c0 -3 -4 -8 -10 -11 -5 -3 -10 -1 -10 4 0 6 5 11 10 11 6 0 10 -2 10 -4z
m-6340 -69 c0 -2 -8 -3 -18 -4 -10 -1 -19 5 -19 12 0 10 5 11 19 4 10 -5 18
-11 18 -12z m6340 -251 c0 -3 -4 -8 -10 -11 -5 -3 -10 -1 -10 4 0 6 5 11 10
11 6 0 10 -2 10 -4z m-6355 -25 c3 -5 2 -12 -3 -15 -5 -3 -9 1 -9 9 0 17 3 19
12 6z m10 -81 c4 -6 -1 -7 -11 -3 -13 5 -15 3 -9 -7 5 -9 4 -11 -4 -6 -6 4 -9
12 -6 17 8 12 22 12 30 -1z m5 -123 c0 -2 -8 -3 -18 -4 -10 -1 -19 5 -19 12 0
10 5 11 19 4 10 -5 18 -11 18 -12z m6340 -91 c0 -3 -4 -8 -10 -11 -5 -3 -10
-1 -10 4 0 6 5 11 10 11 6 0 10 -2 10 -4z m-6334 -160 c0 -14 -5 -21 -9 -17
-4 4 -5 15 -1 24 9 24 12 21 10 -7z m184 -388 c0 -4 -4 -8 -9 -8 -6 0 -12 4
-15 8 -3 5 1 9 9 9 8 0 15 -4 15 -9z m5871 -81 c-10 -9 -11 -8 -5 6 3 10 9 15
12 12 3 -3 0 -11 -7 -18z m-5696 -157 c-3 -5 -11 -10 -16 -10 -6 0 -7 5 -4 10
3 6 11 10 16 10 6 0 7 -4 4 -10z m5495 -95 c-7 -9 -15 -13 -17 -11 -6 6 20 36
26 30 2 -2 -2 -10 -9 -19z m-170 -125 c0 -5 -5 -10 -11 -10 -5 0 -7 5 -4 10 3
6 8 10 11 10 2 0 4 -4 4 -10z m-4800 -221 c0 -5 5 -7 10 -4 6 3 10 1 10 -4 0
-16 -16 -13 -30 4 -9 10 -9 15 -1 15 6 0 11 -5 11 -11z m58 -34 c-3 -3 -9 2
-12 12 -6 14 -5 15 5 6 7 -7 10 -15 7 -18z m4382 -5 c0 -5 -5 -10 -11 -10 -5
0 -7 5 -4 10 3 6 8 10 11 10 2 0 4 -4 4 -10z m-4315 -24 c-17 -12 -45 -12 -45
1 0 3 7 3 15 0 8 -4 17 -2 20 3 4 6 11 10 18 10 6 0 2 -6 -8 -14z m4232 -38
c-3 -8 -6 -5 -6 6 -1 11 2 17 5 13 3 -3 4 -12 1 -19z m-997 -552 c0 -2 -7 -9
-15 -16 -13 -11 -14 -10 -9 4 5 14 24 23 24 12z m-2120 -46 c0 -5 -2 -10 -4
-10 -3 0 -8 5 -11 10 -3 6 -1 10 4 10 6 0 11 -4 11 -10z m259 -132 c12 -10 22
-13 28 -7 6 6 10 4 10 -5 0 -16 -19 -15 -39 2 -8 6 -17 10 -20 7 -3 -3 -11 1
-17 9 -17 20 13 15 38 -6z m1402 -89 c-12 -10 -27 -16 -32 -13 -15 9 0 24 18
17 12 -5 14 -3 8 7 -5 9 -4 11 3 6 7 -4 12 -2 12 5 0 7 3 9 8 5 4 -4 -4 -16
-17 -27z m-521 -359 c0 -5 -5 -10 -11 -10 -5 0 -7 5 -4 10 3 6 8 10 11 10 2 0
4 -4 4 -10z m-170 -80 c4 0 10 -7 14 -15 4 -11 -4 -8 -24 7 -17 12 -30 26 -30
31 0 4 7 1 16 -7 8 -9 19 -16 24 -16z m135 20 c-3 -5 -11 -10 -16 -10 -6 0 -7
5 -4 10 3 6 11 10 16 10 6 0 7 -4 4 -10z m-85 -60 c0 -5 -2 -10 -4 -10 -3 0
-8 5 -11 10 -3 6 -1 10 4 10 6 0 11 -4 11 -10z"/>
<path d="M4655 9891 c-3 -5 -2 -12 3 -15 5 -3 9 1 9 9 0 17 -3 19 -12 6z"/>
<path d="M5010 9745 c-7 -9 -8 -15 -2 -15 5 0 12 7 16 15 3 8 4 15 2 15 -2 0
-9 -7 -16 -15z"/>
<path d="M4665 9651 c-3 -6 5 -15 17 -21 21 -10 22 -10 5 3 -14 11 -15 16 -5
20 9 4 9 6 1 6 -6 1 -14 -3 -18 -8z"/>
<path d="M5066 9598 c3 -5 10 -6 15 -3 13 9 11 12 -6 12 -8 0 -12 -4 -9 -9z"/>
<path d="M5105 9510 c-3 -6 1 -7 9 -4 18 7 21 14 7 14 -6 0 -13 -4 -16 -10z"/>
<path d="M5140 9496 c0 -2 7 -7 16 -10 8 -3 12 -2 9 4 -6 10 -25 14 -25 6z"/>
<path d="M5181 9474 c0 -11 3 -14 6 -6 3 7 2 16 -1 19 -3 4 -6 -2 -5 -13z"/>
<path d="M4696 9471 c-4 -5 -2 -12 3 -15 5 -4 12 -2 15 3 4 5 2 12 -3 15 -5 4
-12 2 -15 -3z"/>
<path d="M5215 9440 c-3 -5 -1 -10 4 -10 6 0 11 5 11 10 0 6 -2 10 -4 10 -3 0
-8 -4 -11 -10z"/>
<path d="M4690 9275 c-11 -13 -10 -14 4 -9 9 3 16 10 16 15 0 13 -6 11 -20 -6z"/>
<path d="M5595 9141 c-3 -5 -2 -12 3 -15 5 -3 9 1 9 9 0 17 -3 19 -12 6z"/>
<path d="M2146 9044 c-5 -14 -4 -15 8 -5 11 9 15 8 20 -5 4 -9 9 -14 13 -11 7
7 -15 37 -27 37 -4 0 -11 -7 -14 -16z"/>
<path d="M5715 9040 c27 -12 43 -12 25 0 -8 5 -22 9 -30 9 -10 0 -8 -3 5 -9z"/>
<path d="M8340 9041 c0 -10 19 -25 25 -20 1 2 -3 10 -11 17 -8 7 -14 8 -14 3z"/>
<path d="M2384 8999 c1 -7 10 -13 19 -15 9 -1 15 2 11 7 -3 5 -9 7 -14 4 -4
-3 -11 0 -13 5 -3 6 -4 5 -3 -1z"/>
<path d="M2595 8969 c-4 -6 -5 -12 -2 -15 2 -3 7 2 10 11 7 17 1 20 -8 4z"/>
<path d="M7947 8959 c7 -9 9 -20 5 -25 -4 -4 0 -3 9 4 9 6 19 9 23 5 4 -4 4 1
0 12 -5 12 -9 14 -12 7 -3 -10 -7 -10 -20 0 -15 11 -15 11 -5 -3z"/>
<path d="M4570 8939 c0 -5 -6 -7 -12 -3 -7 4 -9 3 -5 -1 13 -15 36 -14 30 1
-6 17 -13 18 -13 3z"/>
<path d="M5970 8939 c0 -5 5 -7 10 -4 6 3 10 8 10 11 0 2 -4 4 -10 4 -5 0 -10
-5 -10 -11z"/>
<path d="M2821 8923 c-1 -17 16 -25 25 -12 4 7 3 9 -4 5 -5 -3 -13 0 -15 6 -4
9 -6 10 -6 1z"/>
<path d="M7806 8918 c3 -5 10 -6 15 -3 13 9 11 12 -6 12 -8 0 -12 -4 -9 -9z"/>
<path d="M6080 8906 c0 -2 7 -6 15 -10 8 -3 15 -1 15 4 0 6 -7 10 -15 10 -8 0
-15 -2 -15 -4z"/>
<path d="M3065 8881 c-10 -17 17 -24 31 -7 8 9 9 11 2 6 -16 -13 -31 -13 -23
0 3 6 4 10 1 10 -3 0 -7 -4 -11 -9z"/>
<path d="M3126 8875 c-18 -14 -18 -14 1 -12 11 0 20 7 20 14 0 7 -1 13 -1 13
-1 0 -9 -7 -20 -15z"/>
<path d="M4380 8881 c0 -7 -5 -9 -12 -5 -7 5 -8 3 -3 -5 5 -9 10 -10 18 -2 6
6 8 14 4 18 -4 3 -7 1 -7 -6z"/>
<path d="M6329 8853 c-13 -16 -12 -17 4 -4 9 7 17 15 17 17 0 8 -8 3 -21 -13z"/>
<path d="M3406 8833 c-6 -14 -5 -15 5 -6 7 7 10 15 7 18 -3 3 -9 -2 -12 -12z"/>
<path d="M3656 8833 c-6 -14 -5 -15 5 -6 7 7 10 15 7 18 -3 3 -9 -2 -12 -12z"/>
<path d="M3907 8838 c-3 -8 -2 -21 3 -27 11 -19 23 5 12 25 -8 14 -10 14 -15
2z"/>
<path d="M6370 8839 c0 -5 5 -7 10 -4 6 3 10 8 10 11 0 2 -4 4 -10 4 -5 0 -10
-5 -10 -11z"/>
<path d="M7027 8837 c-3 -8 -1 -20 4 -28 10 -15 10 -14 14 19 2 24 -10 30 -18
9z"/>
<path d="M7130 8840 c-9 -6 -10 -10 -3 -10 6 0 15 5 18 10 8 12 4 12 -15 0z"/>
<path d="M2100 8800 c-13 -8 -12 -10 3 -10 9 0 17 5 17 10 0 12 -1 12 -20 0z"/>
<path d="M2097 8713 c-10 -9 -9 -23 1 -23 5 0 9 7 9 15 0 17 -1 18 -10 8z"/>
<path d="M8486 8643 c-6 -14 -5 -15 5 -6 7 7 10 15 7 18 -3 3 -9 -2 -12 -12z"/>
<path d="M8476 8608 c3 -5 10 -6 15 -3 13 9 11 12 -6 12 -8 0 -12 -4 -9 -9z"/>
<path d="M8478 8483 c7 -3 16 -2 19 1 4 3 -2 6 -13 5 -11 0 -14 -3 -6 -6z"/>
<path d="M2100 8160 c-13 -8 -12 -10 3 -10 9 0 17 5 17 10 0 12 -1 12 -20 0z"/>
<path d="M2097 8073 c-10 -9 -9 -23 1 -23 5 0 9 7 9 15 0 17 -1 18 -10 8z"/>
<path d="M8495 8040 c-4 -6 -11 -7 -17 -4 -7 4 -8 2 -4 -5 6 -9 11 -9 22 0 14
11 18 19 10 19 -3 0 -8 -5 -11 -10z"/>
<path d="M8495 7720 c-4 -6 -11 -7 -17 -4 -7 4 -8 2 -4 -5 6 -9 11 -9 22 0 14
11 18 19 10 19 -3 0 -8 -5 -11 -10z"/>
<path d="M8495 7400 c-4 -6 -11 -7 -17 -4 -7 4 -8 2 -4 -5 6 -9 11 -9 22 0 14
11 18 19 10 19 -3 0 -8 -5 -11 -10z"/>
<path d="M2100 7200 c-13 -8 -12 -10 3 -10 9 0 17 5 17 10 0 12 -1 12 -20 0z"/>
<path d="M2097 7113 c-10 -9 -9 -23 1 -23 5 0 9 7 9 15 0 17 -1 18 -10 8z"/>
<path d="M8495 7080 c-4 -6 -11 -7 -17 -4 -7 4 -8 2 -4 -5 6 -9 11 -9 22 0 14
11 18 19 10 19 -3 0 -8 -5 -11 -10z"/>
<path d="M8476 7008 c3 -5 10 -6 15 -3 13 9 11 12 -6 12 -8 0 -12 -4 -9 -9z"/>
<path d="M8478 6883 c7 -3 16 -2 19 1 4 3 -2 6 -13 5 -11 0 -14 -3 -6 -6z"/>
<path d="M8483 6557 c-8 -17 -8 -24 0 -24 7 0 13 11 13 24 2 29 0 29 -13 0z"/>
<path d="M2095 6280 c-3 -5 1 -10 10 -10 9 0 13 5 10 10 -3 6 -8 10 -10 10 -2
0 -7 -4 -10 -10z"/>
<path d="M2075 6241 c-3 -5 -2 -12 3 -15 5 -3 9 1 9 9 0 17 -3 19 -12 6z"/>
<path d="M8486 6083 c-6 -14 -5 -15 5 -6 7 7 10 15 7 18 -3 3 -9 -2 -12 -12z"/>
<path d="M8476 6048 c3 -5 10 -6 15 -3 13 9 11 12 -6 12 -8 0 -12 -4 -9 -9z"/>
<path d="M2095 5960 c-3 -5 1 -10 10 -10 9 0 13 5 10 10 -3 6 -8 10 -10 10 -2
0 -7 -4 -10 -10z"/>
<path d="M2075 5921 c-3 -5 -2 -12 3 -15 5 -3 9 1 9 9 0 17 -3 19 -12 6z"/>
<path d="M8478 5923 c7 -3 16 -2 19 1 4 3 -2 6 -13 5 -11 0 -14 -3 -6 -6z"/>
<path d="M8495 5480 c-4 -6 -11 -7 -17 -4 -7 4 -8 2 -4 -5 6 -9 11 -9 22 0 14
11 18 19 10 19 -3 0 -8 -5 -11 -10z"/>
<path d="M2100 5280 c-13 -8 -12 -10 3 -10 9 0 17 5 17 10 0 12 -1 12 -20 0z"/>
<path d="M2097 5193 c-10 -9 -9 -23 1 -23 5 0 9 7 9 15 0 17 -1 18 -10 8z"/>
<path d="M8495 5160 c-4 -6 -11 -7 -17 -4 -7 4 -8 2 -4 -5 6 -9 11 -9 22 0 14
11 18 19 10 19 -3 0 -8 -5 -11 -10z"/>
<path d="M8495 4840 c-4 -6 -11 -7 -17 -4 -7 4 -8 2 -4 -5 6 -9 11 -9 22 0 14
11 18 19 10 19 -3 0 -8 -5 -11 -10z"/>
<path d="M2095 4729 c-4 -6 -5 -12 -2 -15 2 -3 7 2 10 11 7 17 1 20 -8 4z"/>
<path d="M8440 4596 c0 -2 7 -9 15 -16 9 -7 15 -8 15 -2 0 5 -7 12 -15 16 -8
3 -15 4 -15 2z"/>
<path d="M2236 4312 c-3 -5 1 -9 9 -9 8 0 12 4 9 9 -3 4 -7 8 -9 8 -2 0 -6 -4
-9 -8z"/>
<path d="M8179 4082 c-13 -15 -12 -16 3 -4 13 10 17 10 21 0 4 -9 6 -9 6 -1 2
20 -16 24 -30 5z"/>
<path d="M1365 3940 l20 -23 -23 12 c-23 12 -23 12 -11 -11 11 -20 10 -21 -3
-10 -13 10 -15 6 -15 -35 0 -26 -5 -49 -11 -51 -8 -2 -7 -8 3 -18 11 -12 12
-20 5 -35 -10 -18 -7 -23 15 -20 6 1 1 -5 -9 -14 -10 -8 -23 -12 -27 -9 -5 3
-9 0 -9 -6 0 -6 8 -10 18 -8 13 2 16 -3 14 -22 -2 -14 -8 -26 -13 -28 -5 -2
-2 -10 6 -18 11 -12 12 -20 5 -35 -10 -18 -7 -23 15 -20 6 1 1 -5 -9 -14 -10
-8 -23 -12 -27 -9 -5 3 -9 0 -9 -6 0 -6 8 -10 18 -8 13 2 16 -3 14 -22 -2 -14
-8 -26 -13 -28 -5 -2 -2 -10 6 -18 11 -12 12 -20 5 -35 -10 -18 -7 -23 15 -20
6 1 1 -5 -9 -14 -10 -8 -23 -12 -27 -9 -5 3 -9 0 -9 -6 0 -6 8 -10 18 -8 13 2
16 -3 14 -22 -2 -14 -8 -26 -13 -28 -5 -2 -2 -10 6 -18 11 -12 12 -20 5 -35
-10 -18 -7 -23 15 -20 6 1 1 -5 -9 -14 -10 -8 -23 -12 -27 -9 -5 3 -9 0 -9 -6
0 -6 8 -10 18 -8 13 2 16 -3 14 -22 -2 -14 -8 -26 -13 -28 -5 -2 -2 -10 6 -18
11 -12 12 -20 5 -35 -10 -18 -7 -23 15 -20 6 1 1 -5 -9 -14 -10 -8 -23 -12
-27 -9 -5 3 -9 0 -9 -6 0 -6 8 -10 18 -8 13 2 16 -3 14 -22 -2 -14 -8 -26 -13
-28 -5 -2 -2 -10 6 -18 11 -12 12 -20 5 -35 -10 -18 -7 -23 15 -20 6 1 1 -5
-9 -14 -10 -8 -23 -12 -27 -9 -5 3 -9 0 -9 -6 0 -7 6 -10 14 -7 23 9 27 -5 10
-31 -15 -23 -15 -24 8 -17 14 4 18 3 11 -2 -9 -7 -8 -16 6 -39 14 -23 15 -31
5 -31 -7 0 -12 3 -11 6 0 3 -2 16 -7 29 -8 24 -21 28 -32 10 -4 -7 -3 -8 4 -4
9 5 33 -23 36 -44 2 -12 27 -6 37 8 7 13 9 13 6 2 -7 -26 12 -51 31 -41 16 8
58 -9 48 -20 -2 -2 3 -10 11 -18 12 -11 14 -10 11 4 -2 10 4 20 12 22 13 4 13
3 0 -6 -10 -7 -11 -11 -3 -11 7 0 12 -6 10 -12 -1 -8 7 -12 23 -10 22 4 23 2
10 -15 -14 -17 -14 -17 4 -3 20 15 49 23 41 10 -2 -4 4 -18 15 -30 11 -13 20
-19 20 -14 0 6 -5 15 -10 20 -7 7 -6 11 4 11 8 0 15 -3 14 -6 -2 -21 4 -30 17
-25 11 5 13 2 8 -12 -4 -11 -3 -15 4 -11 6 4 19 0 27 -9 9 -8 16 -11 16 -5 0
5 -7 14 -16 19 -11 6 -13 11 -5 16 6 4 11 2 11 -4 0 -6 5 -8 10 -5 6 4 9 1 8
-7 -2 -8 6 -13 18 -12 22 1 25 -10 10 -35 -7 -11 -5 -13 8 -8 9 4 15 3 11 -2
-3 -5 -2 -11 2 -14 5 -2 3 -3 -4 -1 -6 1 -10 -5 -8 -14 1 -9 -3 -23 -9 -31 -8
-11 -8 -13 2 -7 7 4 12 2 12 -8 0 -8 -6 -17 -12 -20 -7 -3 -3 -3 9 -1 12 3 25
0 29 -6 4 -7 3 -9 -3 -6 -6 4 -19 -1 -29 -9 -10 -9 -14 -13 -9 -11 6 3 17 -2
25 -11 13 -14 12 -15 -3 -9 -9 3 -19 1 -23 -5 -4 -7 -3 -8 5 -4 8 5 10 0 7
-18 -3 -14 0 -29 6 -32 7 -5 8 -2 3 6 -5 8 -4 11 2 7 14 -9 8 -67 -7 -77 -9
-5 -9 -9 -1 -14 6 -4 9 -12 6 -17 -4 -5 -1 -9 5 -9 7 0 10 -7 6 -15 -3 -9 5
-20 22 -30 27 -16 27 -16 2 -10 -14 2 -2 -7 25 -21 28 -14 40 -23 27 -21 -18
4 -21 3 -13 -7 6 -7 9 -16 6 -20 -3 -3 1 -2 7 4 15 12 31 13 24 1 -5 -8 31
-23 45 -18 10 3 39 -24 39 -37 0 -6 -5 -4 -10 4 -5 8 -10 10 -10 4 0 -15 25
-36 33 -27 4 3 7 1 7 -6 0 -7 5 -9 10 -6 6 4 7 12 3 18 -3 7 3 4 15 -6 11 -11
19 -24 16 -30 -2 -7 5 -18 17 -25 12 -8 18 -9 14 -3 -3 6 1 11 9 11 19 0 20
-11 4 -29 -11 -11 -10 -12 2 -5 22 13 67 12 67 -1 0 -7 -6 -12 -13 -12 -7 0
-11 4 -9 8 6 9 -22 5 -32 -5 -4 -4 -3 -7 2 -6 6 1 12 2 15 0 3 -1 16 -4 30 -6
14 -3 27 -9 28 -14 2 -6 10 -10 18 -10 10 0 12 -5 8 -12 -5 -8 0 -7 11 2 11 9
16 10 11 3 -9 -17 6 -17 23 0 11 10 12 9 6 -2 -6 -10 -4 -13 7 -9 8 4 15 0 16
-8 1 -8 3 -20 4 -28 1 -10 9 -12 30 -6 25 8 27 7 18 -10 -13 -24 -13 -30 1
-30 5 0 7 5 4 10 -3 6 -1 10 4 10 6 0 11 -5 11 -11 0 -7 10 -9 24 -7 16 3 27
0 30 -9 4 -9 1 -11 -6 -7 -6 4 -8 3 -4 -4 4 -7 17 -8 35 -2 26 7 28 6 25 -19
-3 -25 -2 -25 12 -6 15 19 16 19 12 -5 -2 -19 1 -25 17 -25 11 0 26 -4 33 -8
7 -5 12 -4 12 2 0 6 5 11 12 11 9 0 9 -3 0 -12 -19 -19 -14 -25 20 -20 25 4
30 2 25 -10 -4 -12 0 -15 16 -11 16 3 18 2 9 -5 -11 -7 -9 -10 6 -14 12 -4 19
-1 18 6 -2 6 -1 8 1 3 3 -4 8 -5 13 -2 4 3 6 -3 3 -14 -6 -22 12 -37 23 -20 4
8 3 9 -4 5 -7 -4 -12 -2 -12 3 0 6 5 11 11 11 5 0 7 6 3 13 -4 7 -3 9 2 4 5
-5 10 -13 10 -18 1 -5 2 -13 3 -18 2 -14 30 -21 37 -9 5 7 2 8 -6 3 -8 -5 -11
-4 -6 3 8 13 36 5 36 -10 0 -5 -4 -6 -10 -3 -5 3 -10 1 -10 -4 0 -6 11 -11 25
-11 14 0 25 5 25 12 0 6 3 8 6 5 4 -4 1 -13 -6 -22 -11 -13 -10 -14 6 -8 17 6
18 5 4 -13 -11 -15 -11 -16 0 -6 8 6 21 12 30 12 13 0 13 -1 0 -10 -8 -5 -10
-10 -4 -10 6 0 14 3 18 7 10 10 46 11 40 1 -3 -4 1 -8 8 -8 9 0 9 -3 -2 -10
-8 -5 -10 -10 -5 -10 6 0 16 5 23 12 9 9 12 9 12 -1 0 -7 5 -9 12 -5 6 4 9 3
6 -2 -3 -5 -2 -18 3 -29 7 -18 8 -18 8 -2 1 10 6 15 12 12 6 -4 8 -14 5 -22
-3 -8 -1 -11 5 -8 5 4 16 2 24 -5 9 -8 15 -8 20 0 3 6 11 8 16 4 5 -3 6 -10 3
-16 -4 -7 -2 -8 5 -4 9 6 9 11 1 21 -8 10 -8 15 1 21 8 4 9 3 5 -4 -4 -7 -2
-12 3 -12 6 0 11 -8 11 -17 0 -13 3 -14 12 -5 19 19 31 14 26 -11 -4 -21 -2
-23 19 -13 12 6 23 16 23 21 0 13 20 -17 20 -30 0 -5 -5 -3 -10 5 -5 8 -10 11
-10 5 0 -5 5 -17 10 -25 7 -12 10 -12 10 -1 0 8 6 11 16 7 13 -5 14 -4 6 7 -9
10 -8 14 3 14 7 0 14 -3 13 -6 -2 -18 3 -31 13 -31 5 0 7 5 3 12 -5 7 -3 8 6
3 10 -6 9 -11 -5 -22 -11 -7 -14 -13 -7 -13 6 0 18 10 27 23 l16 22 -5 -27
c-3 -20 -1 -25 10 -21 8 3 12 9 9 13 -3 5 0 12 6 16 8 5 9 3 4 -6 -6 -10 -4
-12 9 -7 9 4 15 3 12 -1 -2 -4 -1 -14 5 -22 7 -12 9 -12 9 -1 0 8 8 4 21 -10
11 -13 18 -18 14 -11 -4 8 2 12 17 12 18 0 20 -2 8 -10 -9 -6 -10 -10 -3 -10
6 0 15 5 19 11 4 7 14 0 26 -18 11 -15 18 -20 14 -10 -3 9 -1 17 4 17 6 0 10
-6 10 -12 0 -9 4 -8 11 2 9 12 10 10 6 -8 -5 -19 -3 -21 9 -11 7 6 12 15 9 19
-3 5 6 3 20 -3 13 -7 29 -21 35 -32 7 -13 9 -14 6 -3 -4 12 -1 15 10 11 7 -3
14 -11 14 -19 0 -8 5 -14 10 -14 6 0 12 0 15 0 3 0 4 3 3 7 -2 5 -6 7 -10 6
-15 -5 -8 15 7 21 8 3 14 2 13 -2 -1 -4 2 -15 6 -24 9 -20 27 -24 22 -5 -1 6
-1 9 1 4 3 -4 10 -4 16 0 6 4 8 0 4 -10 -3 -9 -1 -19 5 -23 6 -4 8 -3 5 3 -4
6 -1 13 6 15 16 6 38 -2 33 -11 -3 -4 2 -8 10 -8 9 0 13 6 10 14 -4 9 -2 11 7
6 6 -4 16 -8 21 -8 5 0 11 -6 14 -12 2 -7 -1 -13 -8 -13 -6 0 -8 5 -4 12 5 7
3 8 -5 3 -18 -10 2 -27 22 -19 9 3 15 10 12 14 -3 5 -1 11 4 14 5 4 8 -5 6
-19 -2 -20 0 -23 11 -14 13 11 18 5 15 -14 -1 -5 3 -6 8 -2 6 3 7 13 4 21 -5
14 -3 14 15 3 15 -9 18 -16 9 -21 -7 -4 -3 -6 11 -5 15 1 21 6 17 16 -4 11 -2
11 8 3 9 -8 17 -8 24 -1 6 6 10 5 10 -5 0 -8 -5 -14 -10 -13 -5 1 -12 -5 -14
-13 -4 -13 -3 -13 6 0 6 8 11 11 11 5 0 -5 8 -1 16 10 16 19 16 19 9 -5 -7
-22 -6 -23 9 -11 10 9 16 10 16 2 0 -6 5 -11 11 -11 5 0 8 4 5 8 -2 4 6 8 19
8 16 0 22 -5 20 -16 -2 -10 4 -16 16 -17 10 -1 19 3 19 8 0 6 -4 7 -10 4 -6
-4 -7 1 -3 11 5 14 8 13 19 -7 7 -13 10 -27 8 -31 -3 -5 -1 -8 4 -8 6 0 13 7
16 16 4 10 2 13 -7 8 -6 -4 -9 -3 -4 1 12 14 48 14 37 0 -6 -8 7 -10 51 -9 33
0 62 -3 65 -7 3 -5 10 -9 15 -9 6 0 7 5 4 10 -3 6 -1 10 5 10 6 0 10 -7 8 -16
-2 -10 3 -19 11 -22 8 -3 11 0 7 6 -3 6 -1 14 5 18 7 4 9 3 6 -3 -8 -12 17
-36 26 -26 4 3 7 2 7 -3 0 -5 10 -10 23 -11 21 -2 21 -1 2 10 -11 7 -21 19
-23 27 -2 12 1 11 11 -2 13 -16 15 -16 32 0 18 16 18 16 4 -2 -13 -18 -12 -19
3 -13 10 3 20 1 24 -5 5 -7 2 -8 -6 -3 -9 5 -11 4 -6 -4 4 -6 11 -9 16 -6 4 3
11 -1 14 -7 3 -7 3 -1 1 15 -2 16 0 25 6 22 5 -4 7 -11 4 -16 -4 -5 1 -12 10
-15 10 -4 14 -13 10 -22 -5 -13 -2 -12 14 2 11 10 19 22 16 26 -2 4 2 7 10 7
8 0 14 -3 13 -6 0 -3 0 -13 1 -21 1 -13 3 -13 10 0 6 8 7 18 4 24 -3 5 -1 6 6
2 6 -4 8 -12 5 -18 -4 -6 -3 -8 2 -5 6 3 16 2 24 -3 9 -6 18 -3 26 8 10 14 11
12 9 -11 -2 -15 1 -27 7 -27 6 0 8 7 5 15 -4 8 -1 17 5 21 6 4 8 3 4 -4 -8
-14 33 -12 54 2 8 6 6 1 -4 -12 -24 -28 -7 -29 22 -2 22 21 32 14 11 -7 -8 -8
-4 -11 14 -10 21 2 23 5 14 17 -6 8 -7 12 -3 8 5 -4 15 -3 22 3 9 8 11 5 7
-10 -3 -13 -1 -21 6 -21 7 0 9 5 5 13 -5 8 -2 8 9 -2 20 -16 23 -2 5 19 -11
12 -10 12 4 2 9 -7 18 -9 20 -5 3 4 3 3 2 -4 -2 -9 6 -11 26 -6 29 5 36 -2 31
-30 -1 -5 3 -6 9 -2 6 3 8 10 5 15 -3 5 0 12 6 16 8 5 9 3 4 -6 -6 -10 -4 -12
8 -7 9 3 19 1 23 -5 4 -6 3 -8 -3 -5 -6 4 -17 -1 -24 -10 -12 -15 -12 -16 1
-8 21 13 90 13 90 0 1 -5 7 1 16 15 11 19 14 21 12 6 -2 -10 3 -20 10 -22 7
-1 8 0 2 3 -5 2 -7 9 -4 14 3 6 12 5 22 -3 13 -11 14 -11 8 1 -6 9 -5 12 5 9
8 -3 13 -11 11 -17 -1 -7 2 -10 8 -6 6 3 8 11 5 16 -4 5 -2 9 4 9 5 0 12 -6
14 -12 4 -10 6 -10 6 0 1 6 6 12 12 12 5 0 7 -4 4 -10 -10 -17 7 -11 22 7 8
10 12 13 9 7 -3 -7 1 -15 10 -18 11 -4 15 -2 11 8 -4 10 -1 13 9 9 9 -3 13
-12 9 -21 -4 -12 -2 -12 8 -4 8 7 18 8 23 4 4 -4 2 1 -5 11 -12 15 -12 17 3
11 9 -3 16 -10 16 -16 0 -5 5 -6 10 -3 6 4 7 11 4 17 -4 6 2 6 15 -1 25 -14
28 -23 4 -14 -10 3 -15 3 -12 -1 4 -4 16 -8 28 -11 18 -3 20 -1 11 15 -8 16
-8 18 5 14 8 -4 15 -10 15 -15 0 -5 5 -9 11 -9 5 0 7 5 4 10 -3 6 -2 10 4 10
5 0 12 -8 14 -17 4 -17 5 -17 6 0 0 10 6 15 11 12 6 -4 7 -12 3 -18 -4 -7 0
-6 10 2 9 7 17 10 18 5 0 -5 4 0 9 11 7 17 9 17 9 3 1 -10 6 -18 12 -18 5 0 8
4 5 8 -2 4 5 9 17 9 15 2 18 0 9 -6 -11 -7 -11 -9 2 -14 9 -4 15 -1 13 5 -1 6
4 13 12 16 10 3 11 0 5 -9 -6 -11 -4 -11 10 0 15 13 19 13 27 0 6 -10 9 -11 9
-1 0 7 5 10 10 7 6 -4 7 -12 3 -18 -5 -8 -2 -8 9 0 8 7 18 10 21 6 4 -3 7 2 7
12 0 14 -3 15 -15 5 -9 -7 -15 -8 -15 -2 0 5 7 13 16 16 11 4 18 -1 21 -14 3
-11 10 -20 15 -20 5 0 7 4 4 9 -9 14 20 7 40 -9 16 -14 16 -13 5 8 -14 26 -9
28 13 6 15 -14 16 -14 17 3 0 16 1 16 9 -2 7 -17 9 -17 9 -2 1 9 9 18 19 19 9
0 22 2 28 2 6 1 18 7 26 13 12 10 15 10 15 -2 0 -8 -3 -12 -7 -10 -4 2 -7 -2
-7 -10 0 -11 4 -12 13 -4 7 6 19 7 26 3 10 -6 11 -5 1 7 -11 13 -9 15 7 14 11
-1 23 -5 27 -10 5 -4 2 -5 -4 -1 -7 4 -13 2 -13 -3 0 -16 15 -13 30 3 6 8 18
12 26 9 8 -3 14 1 14 8 0 7 3 9 6 6 4 -4 1 -13 -6 -22 -8 -9 -9 -15 -2 -15 6
0 16 8 21 18 10 16 10 16 11 -1 0 -10 5 -15 10 -12 6 4 8 10 5 15 -3 5 -1 11
4 15 6 3 8 -3 6 -15 -2 -11 0 -20 6 -20 5 0 9 6 9 14 0 8 5 18 12 22 6 4 8 3
5 -3 -4 -6 -1 -13 7 -16 20 -8 28 4 13 21 -10 13 -9 14 1 8 7 -4 20 -2 29 6
12 9 15 9 9 1 -4 -8 -1 -13 9 -13 10 0 14 -5 9 -12 -6 -11 -4 -11 7 0 15 14
43 16 34 2 -3 -6 1 -7 9 -4 9 3 14 10 11 14 -6 10 15 8 33 -3 7 -5 12 -3 12 4
0 9 3 9 14 0 11 -9 16 -9 22 0 4 8 3 9 -4 5 -7 -4 -12 -2 -12 5 0 11 27 9 63
-6 10 -4 17 -3 17 5 0 6 -5 8 -12 4 -7 -4 -8 -3 -4 4 4 8 2 10 -7 6 -8 -3 -17
-2 -20 3 -3 4 6 9 19 9 13 1 24 -2 24 -6 0 -11 50 -19 56 -8 3 5 13 3 22 -4
12 -10 14 -10 8 -1 -10 18 2 33 20 26 13 -5 13 -7 2 -14 -7 -5 -8 -9 -2 -9 17
0 25 12 14 25 -7 8 -5 12 5 12 8 0 15 -10 16 -21 0 -20 1 -20 9 2 10 22 30 31
30 11 0 -5 -5 -7 -12 -3 -7 4 -8 3 -4 -4 4 -6 13 -9 21 -6 8 4 12 10 9 15 -3
5 9 9 26 9 20 0 29 4 24 11 -3 6 5 4 19 -6 24 -16 26 -15 36 3 6 11 7 23 3 27
-4 5 -1 5 6 1 7 -4 10 -11 8 -15 -3 -4 11 -7 32 -5 20 2 37 3 37 4 0 1 10 3
23 4 12 2 28 9 35 16 10 10 9 11 -2 5 -10 -5 -12 -4 -7 4 4 6 11 9 16 6 5 -3
13 3 19 12 9 16 10 16 8 -4 0 -12 -4 -20 -7 -18 -4 2 -7 -3 -7 -12 0 -10 10
-4 27 17 22 26 28 30 33 17 4 -11 2 -14 -9 -10 -7 3 -14 1 -14 -5 0 -6 8 -9
17 -8 10 2 18 9 18 16 0 20 33 21 45 2 9 -14 10 -12 5 8 -5 23 -5 23 8 8 10
-13 16 -15 25 -6 9 9 12 9 12 -3 1 -10 3 -9 11 4 6 10 15 14 22 10 7 -4 5 2
-3 12 -14 17 -14 18 8 6 12 -7 20 -17 16 -23 -4 -7 -3 -8 4 -4 6 4 9 13 6 20
-3 8 0 17 7 22 8 4 10 3 5 -4 -4 -7 -1 -12 9 -12 9 0 14 -4 10 -9 -3 -5 -1
-12 4 -15 10 -7 9 13 -2 30 -4 7 0 14 8 18 8 3 17 0 21 -6 5 -7 2 -8 -6 -3 -8
5 -11 4 -7 -3 12 -18 41 -6 48 19 5 17 8 19 9 7 1 -10 3 -22 4 -27 0 -5 5 -13
10 -18 5 -4 6 -3 2 4 -3 6 -1 15 5 18 5 4 8 14 5 22 -3 8 -1 11 4 8 6 -3 10
-2 10 2 0 5 11 9 24 9 14 0 22 -4 20 -8 -3 -5 -10 -5 -16 -2 -7 4 -8 2 -4 -5
5 -8 12 -9 19 -3 7 5 20 8 30 7 9 -2 15 0 12 5 -3 4 2 13 10 20 8 7 12 17 8
23 -3 6 -1 7 6 3 9 -6 9 -11 0 -22 -7 -8 -7 -14 -1 -14 13 0 33 25 26 33 -7 7
45 -1 57 -9 4 -2 10 0 14 6 4 6 11 7 17 4 7 -5 8 -2 3 6 -11 18 15 30 39 18
18 -10 19 -9 8 4 -10 13 -9 15 13 10 15 -2 22 -9 18 -16 -4 -6 1 -5 10 3 17
14 24 26 9 17 -5 -3 -9 1 -9 8 0 7 7 13 16 12 9 -1 15 5 13 12 -2 9 9 5 30 -9
17 -13 28 -16 23 -8 -13 20 -15 38 -4 45 5 3 9 2 8 -3 -3 -20 2 -34 11 -28 6
4 8 10 6 14 -3 4 1 8 9 8 8 0 12 -3 10 -7 -2 -4 2 -7 10 -7 8 0 12 4 9 9 -3 4
0 8 6 8 6 0 9 4 6 8 -2 4 -1 14 5 22 5 8 9 10 9 5 0 -6 9 -11 20 -12 11 -1 18
2 16 6 -3 4 4 8 15 8 12 1 17 -3 13 -10 -3 -7 1 -3 10 7 8 10 13 22 11 26 -3
4 3 7 13 7 43 0 53 3 46 16 -5 8 -2 7 10 -2 13 -11 19 -12 29 -2 7 7 7 11 2 9
-6 -2 -11 0 -13 5 -1 4 0 7 3 7 3 0 12 0 21 0 8 0 13 -4 10 -8 -3 -5 1 -9 8
-9 8 0 11 8 8 19 -3 13 0 17 11 12 10 -3 18 2 22 15 3 12 11 21 16 21 6 0 7
-5 4 -10 -3 -6 -1 -10 5 -10 6 0 8 -5 4 -12 -4 -7 -3 -8 5 -4 6 4 9 12 6 17
-4 5 -1 9 5 9 6 0 9 4 5 9 -3 5 0 13 6 17 7 4 10 3 6 -2 -3 -5 6 -15 20 -21
21 -10 23 -10 12 3 -6 8 -9 18 -5 21 4 4 11 1 16 -7 9 -14 11 -13 14 9 0 5 5
13 10 18 5 5 6 3 2 -4 -4 -7 -4 -13 1 -13 13 1 43 26 43 37 0 6 11 9 25 8 14
-2 23 1 19 6 -5 9 9 13 34 10 6 -1 12 3 12 9 0 5 5 9 11 8 6 -2 14 4 16 12 4
13 3 13 -7 0 -10 -13 -11 -13 -7 0 2 8 9 15 16 15 6 0 16 7 21 15 8 13 10 13
10 -2 0 -9 -6 -18 -13 -21 -6 -2 -9 -8 -5 -11 3 -4 16 2 28 14 18 18 24 19 37
8 13 -10 12 -6 -2 17 -11 17 -15 27 -10 22 4 -4 17 1 28 10 11 10 17 13 14 7
-4 -7 -1 -14 7 -17 10 -4 13 1 12 18 -2 17 1 22 12 17 11 -4 13 -2 7 9 -7 11
-6 12 6 2 18 -14 58 -13 56 2 -1 5 3 9 10 8 7 -2 10 4 7 12 -4 8 -11 12 -18 8
-6 -3 -5 0 2 8 11 12 14 12 22 -1 9 -14 14 -7 11 13 -1 5 3 6 8 2 6 -3 8 -13
5 -23 -5 -15 -5 -15 6 1 6 9 8 22 5 27 -3 6 4 10 16 10 16 0 20 5 16 20 -3 11
-1 18 3 15 5 -3 14 3 20 12 11 17 11 17 6 0 -4 -14 -1 -18 12 -15 10 2 17 12
16 25 0 15 4 19 14 15 9 -3 13 -1 9 5 -5 7 0 9 13 6 18 -5 25 5 21 30 -1 5 3
6 8 2 6 -3 8 -13 5 -23 -5 -13 -4 -14 4 -4 5 8 12 13 16 13 18 -3 19 1 3 13
-12 9 -14 16 -8 21 6 3 11 1 11 -4 0 -6 5 -11 11 -11 6 0 8 7 5 16 -5 12 -1
14 16 8 21 -6 22 -5 8 11 -8 11 -10 16 -3 12 12 -8 36 25 28 37 -3 3 -2 4 2 1
3 -3 13 1 21 8 12 9 11 5 -2 -18 l-18 -30 20 22 c11 12 23 19 28 15 5 -4 3 0
-2 8 -12 17 -15 52 -3 45 3 -3 9 5 12 16 4 13 10 19 19 14 7 -4 1 4 -13 18
-25 22 -25 25 -9 35 18 11 21 34 7 48 -3 4 -2 16 4 27 8 14 8 18 0 13 -7 -5
-11 2 -11 18 0 14 -8 29 -17 35 -16 9 -16 10 4 8 12 0 19 -5 16 -11 -3 -5 -1
-6 5 -2 5 3 9 21 6 39 -2 17 -1 26 2 20 10 -22 22 -14 17 10 -5 21 -5 21 10 2
14 -19 15 -18 13 5 -1 22 3 25 31 25 17 0 29 4 26 8 -3 5 3 7 13 5 13 -2 19 3
18 14 -1 10 2 16 6 13 5 -3 12 -1 15 5 5 8 11 8 20 0 10 -8 15 -8 21 1 4 8 3
9 -4 5 -7 -4 -12 -2 -12 3 0 6 9 11 21 11 13 0 18 -4 13 -12 -5 -7 -3 -8 5 -4
7 5 10 10 7 13 -8 9 14 44 23 38 5 -3 19 4 32 14 18 15 28 17 43 9 14 -8 17
-7 11 3 -6 9 -3 10 10 5 15 -5 16 -4 5 9 -11 13 -10 14 4 9 9 -3 22 -1 30 5 7
6 16 9 20 6 3 -3 2 1 -4 7 -12 14 -13 31 -2 24 4 -2 7 22 8 54 0 32 -3 57 -7
55 -3 -3 -5 -16 -4 -30 4 -30 2 -30 -16 -8 -10 11 -10 14 -1 9 6 -4 12 -3 12
3 0 5 -6 12 -12 14 -10 4 -10 6 0 6 7 1 10 5 7 11 -3 5 2 10 12 10 15 0 14 2
-5 16 -26 18 -28 30 -6 38 14 5 15 4 5 -8 -9 -11 -9 -16 0 -22 7 -4 9 -3 5 4
-3 6 -2 14 4 17 8 5 7 11 -1 21 -6 7 -15 12 -18 9 -4 -2 -8 4 -8 13 0 21 22
44 32 34 5 -4 5 -2 1 5 -4 7 -14 9 -24 6 -15 -6 -16 -5 -2 12 11 14 11 17 1
11 -10 -7 -12 -3 -6 14 5 15 4 20 -4 16 -6 -4 -11 0 -11 9 0 9 4 14 9 10 5 -3
13 0 17 6 5 8 3 9 -6 4 -10 -6 -12 -3 -8 13 5 16 1 22 -10 23 -10 1 -7 4 8 9
25 8 25 8 2 9 -13 1 -20 5 -17 11 4 6 10 8 15 5 5 -3 12 0 16 6 4 8 3 9 -4 5
-7 -4 -12 -2 -12 4 0 6 -5 8 -12 4 -7 -4 -8 -3 -4 5 4 6 11 9 16 6 5 -3 12 0
16 6 4 8 3 9 -4 5 -7 -4 -13 -1 -13 8 -2 17 -5 35 -9 39 -1 1 -3 10 -5 19 -2
11 2 15 12 11 12 -5 12 -7 1 -14 -7 -5 -8 -9 -2 -9 18 0 24 13 13 27 -9 10 -8
13 2 13 12 0 12 2 0 9 -8 5 -12 19 -9 35 3 14 2 24 -1 21 -4 -2 -6 12 -6 31 0
21 5 34 13 34 7 0 11 4 7 10 -3 5 -13 7 -23 4 -15 -5 -15 -4 -1 5 18 12 19 65
1 83 -7 7 -6 21 4 44 13 31 13 34 -3 35 -12 1 -10 4 7 9 l25 8 -25 1 c-19 1
-22 3 -10 10 8 6 19 7 25 4 5 -4 0 5 -12 19 -28 29 -29 38 -5 38 14 0 15 -2 2
-10 -9 -6 -10 -10 -3 -10 22 0 25 21 4 27 -12 3 -21 10 -21 15 0 5 -5 6 -12 2
-7 -4 -8 -3 -4 4 4 6 14 9 24 6 14 -5 15 -4 2 5 -13 9 -13 11 0 11 9 0 11 3 5
8 -15 10 -17 54 -3 46 7 -4 8 -2 4 5 -10 15 -29 3 -22 -15 3 -8 1 -14 -4 -14
-9 0 -15 30 -11 53 1 5 -3 6 -8 3 -5 -3 -7 -16 -4 -29 6 -22 6 -21 -16 3 -12
14 -20 19 -16 13 4 -8 0 -13 -9 -13 -9 0 -16 -5 -16 -11 0 -5 -5 -7 -10 -4 -5
3 -10 -2 -10 -11 0 -16 -1 -16 -14 1 -13 18 -14 18 -12 -5 1 -19 -4 -25 -21
-26 -12 -1 -20 2 -17 7 2 4 12 6 22 3 14 -5 14 -4 2 4 -10 8 -18 8 -27 1 -7
-6 -18 -7 -25 -3 -11 6 -11 5 0 -8 9 -11 10 -18 2 -23 -5 -3 -10 -1 -10 4 0
20 -20 11 -30 -11 -5 -13 -9 -18 -9 -11 -1 13 -36 9 -55 -7 -7 -5 -15 -8 -18
-5 -2 3 -5 -2 -5 -10 0 -13 3 -13 18 1 10 9 23 13 30 8 8 -5 10 -3 4 6 -5 9
-4 11 4 6 6 -4 9 -12 5 -17 -3 -6 -9 -8 -12 -5 -3 4 -15 0 -27 -8 -12 -8 -31
-13 -41 -12 -10 2 -27 -3 -36 -11 -10 -9 -28 -13 -42 -11 -17 4 -23 1 -19 -9
3 -7 10 -10 16 -6 5 3 7 1 4 -5 -4 -5 -16 -8 -27 -5 -11 3 -17 10 -13 16 3 6
1 7 -6 3 -6 -4 -9 -10 -7 -14 2 -4 -3 -16 -11 -27 -15 -19 -15 -19 -8 5 l6 25
-19 -24 c-19 -24 -79 -41 -66 -19 4 7 2 8 -5 4 -9 -6 -9 -11 1 -24 10 -12 10
-14 1 -8 -8 4 -13 2 -13 -6 0 -8 -5 -6 -11 5 -10 17 -12 17 -29 2 -11 -10 -24
-14 -32 -9 -9 5 -8 2 2 -11 14 -17 13 -18 -18 -13 -18 2 -36 0 -39 -5 -3 -6
-1 -7 5 -3 6 3 14 1 18 -5 5 -8 -1 -10 -20 -7 -20 4 -24 2 -16 -7 8 -10 7 -15
-1 -21 -8 -5 -9 -3 -4 6 6 9 2 10 -15 5 -17 -5 -21 -4 -15 5 6 9 4 11 -4 6 -7
-5 -10 -15 -6 -24 3 -9 3 -13 -1 -10 -4 4 -16 3 -27 -3 -10 -6 -17 -7 -14 -2
3 5 -3 9 -13 9 -18 0 -18 -2 3 -25 l22 -25 -29 22 c-34 26 -59 15 -35 -15 13
-16 12 -17 -3 -5 -10 8 -19 9 -22 3 -3 -5 0 -12 6 -15 7 -3 3 -3 -9 0 -14 3
-25 -1 -32 -13 -7 -12 -10 -13 -11 -4 0 11 -3 11 -17 0 -10 -8 -14 -9 -10 -2
11 18 -9 25 -23 8 -7 -8 -16 -13 -20 -10 -4 2 -7 -5 -6 -18 1 -23 -28 -32 -50
-15 -7 5 -14 2 -18 -7 -4 -11 -2 -14 6 -9 7 4 8 3 4 -5 -6 -9 -11 -9 -21 -1
-8 7 -20 8 -26 4 -9 -5 -7 -11 7 -21 19 -14 19 -14 -1 -11 -11 2 -23 10 -27
18 -5 12 -7 12 -7 -2 -1 -17 -7 -19 -53 -22 -9 -1 -20 -5 -25 -10 -4 -5 -3 -7
3 -3 6 3 11 0 11 -7 0 -8 -7 -12 -15 -8 -8 3 -21 -3 -28 -13 -8 -10 -17 -15
-21 -11 -4 4 -1 11 7 16 8 5 11 12 6 17 -4 4 -12 0 -17 -10 -6 -10 -15 -14
-22 -10 -7 4 -6 0 2 -10 7 -9 11 -18 7 -18 -3 -1 -9 -2 -13 -3 -5 -1 -14 -5
-22 -10 -11 -7 -12 -6 -5 5 12 20 14 40 3 33 -5 -3 -7 -8 -5 -12 2 -4 -2 -13
-10 -20 -13 -12 -18 -8 -15 11 1 5 -3 6 -9 2 -7 -4 -7 -12 0 -25 7 -13 7 -21
-2 -26 -6 -4 -8 -3 -4 4 3 6 2 13 -3 16 -8 6 -26 -21 -23 -36 1 -4 -11 0 -26
8 -25 13 -28 12 -44 -7 -17 -20 -23 -18 -18 6 1 5 -8 1 -20 -10 -12 -11 -25
-19 -29 -18 -3 0 -5 -3 -4 -8 3 -9 -12 -13 -31 -10 -5 1 -6 -5 -3 -13 7 -16
-13 -18 -24 -2 -8 10 -49 -11 -49 -25 0 -6 7 -3 16 6 9 9 19 13 22 10 7 -7
-31 -34 -40 -29 -5 3 -8 0 -8 -7 0 -7 -3 -9 -7 -6 -3 4 -13 1 -21 -6 -11 -8
-14 -8 -9 0 4 6 3 14 -3 18 -9 5 -14 -7 -11 -27 1 -7 -22 -4 -54 7 l-20 8 20
-16 c20 -16 20 -16 -3 -12 -18 3 -22 0 -18 -10 5 -15 -9 -20 -44 -16 -13 2
-13 1 0 -8 8 -6 11 -11 5 -11 -5 0 -3 -5 5 -10 10 -7 11 -10 3 -11 -28 -3 -32
-4 -39 -11 -4 -4 -1 -15 7 -25 8 -9 9 -14 3 -10 -19 11 -39 -20 -25 -37 10
-12 8 -13 -11 -9 -23 5 -23 5 -3 -11 11 -10 15 -15 8 -12 -6 4 -14 2 -18 -4
-3 -5 -2 -10 2 -10 5 0 14 -10 22 -22 l14 -23 -24 20 -23 20 16 -25 c10 -17
13 -32 7 -47 -5 -15 -2 -28 10 -42 14 -15 17 -32 14 -61 -3 -22 -2 -48 2 -58
8 -20 7 -22 -2 -21 -5 1 -7 5 -6 10 2 5 -2 9 -7 9 -17 0 -11 -18 9 -32 20 -14
23 -40 6 -55 -4 -4 -5 -3 -2 3 3 6 0 11 -7 11 -8 0 -12 -6 -9 -14 3 -7 12 -13
20 -13 8 0 11 -5 8 -10 -4 -6 -10 -8 -15 -5 -5 3 -12 0 -16 -6 -4 -7 -3 -9 3
-6 6 4 14 0 17 -9 5 -13 2 -15 -14 -11 -11 3 -18 1 -14 -4 3 -5 14 -9 25 -9
11 0 17 -5 14 -10 -4 -6 -10 -8 -15 -5 -4 3 -14 -3 -21 -13 -13 -15 -12 -16 4
-3 12 9 17 10 17 2 0 -7 4 -9 10 -6 5 3 7 0 4 -9 -3 -8 -13 -13 -22 -10 -9 3
-6 -2 8 -10 19 -12 21 -15 8 -16 -16 0 -22 -10 -20 -31 1 -3 -6 -6 -14 -6 -10
0 -11 4 -4 11 13 13 13 26 0 26 -5 0 -9 -6 -7 -12 1 -7 -4 -12 -11 -10 -10 2
-10 -2 -3 -16 7 -14 6 -19 -4 -19 -8 0 -12 4 -10 8 3 4 -1 9 -9 12 -11 4 -13
-1 -10 -21 2 -15 1 -22 -3 -17 -12 15 -69 12 -65 -3 1 -8 -5 -12 -15 -10 -10
2 -17 -2 -16 -9 2 -6 -6 -11 -17 -10 -11 1 -20 8 -21 17 0 10 -3 9 -8 -5 -5
-11 -6 -26 -3 -34 3 -9 1 -12 -6 -7 -7 4 -12 2 -12 -6 0 -9 -3 -9 -10 2 -8 12
-14 10 -41 -15 -28 -26 -30 -27 -16 -5 22 32 22 52 1 21 -11 -15 -23 -21 -35
-18 -11 3 -16 1 -13 -5 10 -15 -29 -38 -44 -26 -7 6 -15 8 -19 5 -3 -4 -13 -1
-22 6 -14 11 -15 10 -1 -7 14 -18 13 -19 -4 -13 -14 6 -17 4 -12 -8 3 -10 2
-13 -5 -10 -5 4 -16 2 -24 -5 -10 -8 -15 -8 -21 1 -4 7 -3 9 3 6 6 -4 17 1 24
11 13 15 12 16 -3 4 -11 -9 -18 -10 -23 -2 -12 19 -26 0 -15 -21 6 -10 7 -19
2 -19 -5 0 -14 10 -21 23 l-12 22 5 -22 c2 -13 -3 -28 -12 -35 -11 -9 -14 -9
-9 -1 5 7 0 16 -11 22 -14 7 -19 6 -19 -4 0 -8 4 -12 9 -9 4 3 8 3 8 0 0 -3
-9 -10 -20 -16 -16 -9 -18 -8 -14 5 4 8 2 15 -2 16 -5 0 -17 2 -27 4 -9 2 -15
-1 -11 -6 3 -5 10 -7 15 -4 5 4 9 1 9 -4 0 -6 -11 -11 -24 -11 -26 0 -50 -22
-38 -35 4 -5 1 -5 -6 -1 -7 4 -10 12 -7 17 8 13 -9 11 -22 -2 -8 -8 -13 -7
-18 2 -6 8 -4 10 5 4 9 -5 11 -4 6 4 -6 9 -11 9 -22 0 -11 -9 -14 -9 -14 0 0
7 -5 9 -11 5 -8 -4 -3 -12 12 -21 13 -8 16 -12 7 -9 -10 3 -21 -2 -26 -11 -8
-14 -10 -13 -15 1 -5 11 -3 15 5 10 6 -4 8 -3 4 4 -6 11 -36 9 -56 -3 -6 -3
-10 0 -10 7 0 9 -3 9 -10 -2 -5 -8 -10 -11 -10 -6 0 5 -7 2 -17 -5 -9 -8 -18
-13 -20 -11 -9 6 -23 1 -23 -9 0 -8 4 -8 14 0 10 8 16 9 21 1 4 -6 3 -10 -2
-9 -4 1 -10 1 -13 -1 -22 -8 -50 -8 -50 1 0 5 5 7 10 4 6 -3 10 -1 10 5 0 7
-7 10 -15 6 -8 -3 -15 -1 -15 5 0 6 -7 3 -16 -5 -8 -9 -20 -14 -25 -11 -5 4
-9 1 -9 -5 0 -7 7 -9 16 -6 15 6 15 4 3 -10 -9 -11 -15 -12 -17 -5 -3 8 -8 9
-16 2 -9 -8 -13 -7 -13 4 0 8 5 11 10 8 6 -3 7 -1 3 6 -10 15 -26 4 -26 -17 0
-14 -2 -15 -9 -2 -6 8 -7 18 -4 24 3 5 1 6 -6 2 -6 -4 -9 -11 -6 -16 3 -5 1
-11 -5 -15 -9 -6 -14 8 -11 28 1 5 -3 6 -9 2 -6 -3 -7 -12 -3 -18 4 -7 -4 -5
-18 5 -20 13 -26 13 -26 3 0 -8 5 -11 11 -8 6 4 4 -2 -4 -13 -8 -10 -15 -20
-16 -22 -1 -2 -4 4 -8 13 -4 11 -2 14 6 9 7 -5 8 -3 3 6 -6 10 -13 7 -27 -11
-11 -13 -17 -18 -13 -11 8 15 -7 16 -23 0 -16 -16 -16 4 1 22 10 12 9 12 -4 2
-9 -7 -21 -12 -25 -11 -21 4 -33 -2 -37 -18 -4 -17 -5 -17 -6 0 0 9 -6 17 -12
17 -5 0 -8 -4 -5 -8 3 -5 -1 -9 -9 -9 -8 0 -12 4 -10 8 3 3 -4 9 -16 12 -17 5
-18 3 -8 -9 10 -12 9 -13 -6 -8 -15 6 -16 4 -6 -17 12 -23 11 -23 -4 -4 -8 11
-13 25 -11 32 8 21 -2 15 -15 -8 -9 -17 -8 -20 3 -13 10 6 9 3 -2 -12 -22 -29
-24 -30 -16 -10 5 14 2 17 -9 12 -14 -5 -20 5 -16 27 1 5 -3 6 -9 2 -6 -3 -8
-10 -5 -15 6 -9 -4 -11 -68 -11 -26 0 -35 -4 -30 -12 5 -9 3 -9 -8 -2 -8 6
-23 10 -34 10 -11 0 -23 3 -26 8 -8 12 -51 -1 -44 -13 3 -5 1 -11 -4 -14 -10
-7 -9 13 1 30 4 6 1 11 -7 11 -8 0 -12 -4 -9 -9 3 -4 0 -8 -6 -8 -6 0 -8 -4
-5 -10 3 -5 0 -7 -8 -4 -8 3 -18 0 -23 -7 -4 -8 -3 -10 4 -5 7 4 10 2 7 -6 -3
-8 -15 -15 -28 -15 -17 -2 -18 0 -7 7 11 7 10 9 -7 7 -12 0 -20 -4 -17 -8 2
-4 -3 -10 -12 -13 -10 -4 -13 -2 -8 6 5 8 2 9 -12 3 -10 -4 -27 -7 -37 -7 -9
0 -15 -3 -13 -7 3 -4 -1 -8 -8 -8 -7 0 -13 6 -13 12 0 7 12 12 25 11 15 -1 27
5 29 14 3 9 1 11 -4 5 -4 -6 -22 -10 -40 -10 -18 1 -30 -2 -27 -6 2 -4 -3 -10
-12 -13 -9 -3 -12 -2 -9 5 4 6 -3 7 -19 3 -17 -4 -26 -2 -26 6 0 10 -3 10 -15
0 -13 -11 -14 -10 -9 3 4 12 1 15 -15 12 -11 -2 -20 1 -18 7 1 6 -4 13 -12 16
-10 3 -11 0 -5 -9 6 -11 5 -12 -7 -3 -8 5 -24 9 -36 8 -13 0 -23 3 -23 8 0 6
-12 7 -27 3 -59 -15 -65 -15 -59 1 5 13 3 13 -15 0 -12 -8 -33 -12 -51 -9 -23
3 -28 1 -22 -9 6 -10 5 -11 -7 -2 -8 6 -30 10 -49 9 -19 -1 -29 0 -22 2 6 3
12 9 12 14 0 6 -4 7 -10 4 -6 -3 -10 -1 -10 4 0 6 -6 10 -12 8 -7 -1 -12 4
-10 12 3 12 0 12 -12 1 -9 -7 -16 -20 -16 -29 -1 -9 -7 -3 -14 14 -10 25 -13
27 -19 11 -4 -10 -4 -23 0 -29 4 -7 -1 -6 -10 2 -9 7 -15 17 -12 20 2 4 -2 8
-10 8 -8 0 -11 -5 -8 -10 3 -5 0 -7 -8 -5 -8 3 -13 11 -11 17 1 7 -2 10 -8 6
-6 -3 -7 -11 -4 -17 4 -6 2 -8 -4 -4 -6 3 -13 2 -17 -4 -3 -5 -12 -10 -18 -10
-7 0 -4 5 6 11 24 14 22 33 -2 19 -25 -13 -31 -13 -31 1 0 5 4 7 10 4 6 -4 7
1 3 11 -4 11 -8 13 -11 6 -2 -7 -9 -9 -15 -5 -6 4 -8 0 -5 -9 4 -9 0 -15 -8
-15 -8 0 -13 6 -10 12 3 8 -4 10 -20 7 -15 -3 -24 0 -24 8 0 6 -6 10 -12 7 -7
-2 -21 0 -30 5 -12 6 -18 5 -18 -2 0 -6 -5 -8 -10 -5 -6 4 -7 12 -3 18 4 7 -1
6 -11 -2 -13 -11 -14 -16 -4 -23 8 -5 2 -7 -16 -4 -32 6 -47 15 -25 17 8 1 17
1 22 0 4 0 7 4 7 10 0 6 -9 8 -22 3 -44 -14 -63 -10 -60 11 2 17 0 16 -13 -5
l-15 -25 4 28 c3 15 1 25 -5 22 -5 -4 -9 -12 -9 -20 0 -8 -5 -17 -10 -20 -6
-4 -10 -3 -9 2 3 19 -2 23 -19 14 -14 -7 -19 -6 -19 4 0 8 5 11 11 8 6 -4 2 3
-8 15 -20 23 -36 31 -18 10 7 -9 6 -17 -3 -25 -9 -8 -16 -9 -20 -3 -3 6 -1 10
6 10 17 0 2 13 -17 16 -11 2 -14 -3 -9 -14 5 -13 3 -14 -6 -5 -6 6 -19 9 -28
6 -11 -4 -10 -1 4 11 l20 16 -20 -7 c-18 -6 -18 -5 -6 10 12 15 12 17 -3 11
-9 -3 -16 -10 -16 -14 0 -5 -9 -8 -19 -7 -11 0 -17 6 -14 14 3 7 10 10 16 6 6
-4 7 -1 2 6 -5 9 -14 6 -34 -11 -14 -12 -20 -16 -13 -8 17 20 15 35 -3 20 -8
-7 -15 -9 -15 -4 0 5 -4 3 -9 -5 -6 -9 -11 -10 -15 -2 -7 10 6 16 27 12 5 -1
6 3 2 8 -3 6 -12 8 -21 4 -8 -3 -27 5 -42 18 l-27 24 24 -27 c14 -16 21 -31
18 -35 -4 -3 -7 -1 -7 5 0 7 -6 12 -14 12 -8 0 -16 7 -20 15 -3 8 -12 12 -21
9 -8 -3 -12 -10 -9 -16 3 -5 -3 -4 -15 4 -12 7 -21 16 -21 19 0 4 -7 10 -16
13 -13 5 -14 4 -6 -7 9 -10 8 -14 -3 -14 -7 0 -14 3 -13 6 2 19 -4 28 -17 28
-17 0 -20 -13 -5 -20 6 -3 5 -4 -2 -3 -7 1 -14 12 -16 24 -4 25 -6 26 -33 11
-16 -8 -19 -7 -17 3 2 7 -2 14 -7 16 -6 1 -10 -2 -10 -7 0 -5 -4 -13 -9 -18
-5 -4 -6 -3 -3 3 6 11 -11 23 -39 29 -19 4 -53 38 -48 47 3 4 -2 5 -12 1 -14
-5 -13 -8 7 -24 13 -10 19 -19 12 -19 -6 0 -15 5 -18 10 -4 6 -11 7 -17 4 -7
-4 -8 -2 -4 4 3 6 -2 16 -13 22 -13 7 -22 7 -26 0 -3 -5 -1 -10 6 -10 7 0 9
-3 6 -7 -4 -3 -18 4 -32 17 -14 13 -25 20 -25 16 0 -5 -6 -3 -14 3 -8 6 -19
10 -26 9 -11 -3 -19 15 -22 49 -1 9 -5 10 -14 2 -8 -6 -14 -6 -18 0 -3 5 -16
7 -29 3 -20 -5 -21 -4 -7 14 14 19 14 19 -8 0 -23 -20 -31 -10 -9 14 10 12 9
12 -5 1 -15 -11 -19 -11 -24 3 -4 11 -13 15 -26 10 -15 -4 -18 -3 -13 7 6 9 3
11 -8 6 -10 -3 -17 -2 -17 4 0 6 -5 7 -10 4 -6 -3 -10 4 -10 17 0 13 -6 30
-12 38 -7 8 -4 7 8 -3 17 -14 21 -15 21 -2 0 8 -4 15 -8 15 -4 0 -10 7 -13 16
-5 14 -4 15 9 4 13 -11 18 -11 28 0 9 10 9 11 0 6 -17 -9 -17 26 -1 42 7 7 8
12 4 12 -5 0 -3 6 3 13 8 10 7 14 -3 14 -8 0 -13 -8 -11 -18 3 -13 -1 -16 -12
-12 -8 3 -11 9 -6 12 4 3 9 16 9 29 1 17 -3 22 -15 18 -11 -4 -10 -1 4 9 11 9
26 13 35 10 9 -3 8 0 -4 10 -10 8 -23 12 -27 9 -5 -3 -9 0 -9 5 0 6 5 11 12
11 6 0 8 3 5 7 -4 3 0 14 9 24 12 13 12 19 3 25 -8 5 -10 3 -4 -7 5 -8 -1 -5
-13 5 -26 22 -30 35 -5 15 15 -12 16 -12 9 5 -6 19 -6 19 12 3 10 -9 23 -17
28 -17 5 0 1 5 -9 11 -9 6 -15 14 -12 20 4 5 0 9 -8 9 -7 0 -14 6 -14 14 0 9
7 12 16 8 9 -3 13 -2 9 3 -4 4 -3 14 3 22 9 9 8 13 0 13 -6 0 -10 3 -9 8 3 15
-15 42 -25 35 -6 -3 -7 -1 -3 5 4 7 14 12 22 12 16 0 19 16 4 25 -6 4 -8 10
-5 15 5 8 -13 28 -27 29 -12 1 -10 16 2 16 6 0 9 5 8 10 -2 6 -6 9 -10 8 -10
-4 -33 28 -33 46 0 9 -7 15 -15 13 -12 -3 -13 -1 -2 9 18 19 15 34 -5 18 -11
-9 -14 -10 -10 -2 5 8 -1 15 -18 19 -13 3 -22 11 -19 16 4 6 -2 7 -16 3 -19
-6 -21 -4 -15 17 3 12 3 18 -2 12 -4 -6 -16 -14 -27 -17 -16 -6 -17 -3 -13 20
4 16 4 22 1 15 -5 -10 -9 -10 -22 0 -12 10 -14 10 -8 1 4 -7 3 -13 -3 -13 -5
0 -12 6 -14 13 -4 9 -8 8 -17 -3 -10 -13 -11 -13 -7 1 3 9 1 22 -4 30 -6 10
-9 8 -9 -11 -1 -25 -1 -25 -10 -2 -11 26 -25 30 -16 5 5 -16 4 -15 -9 1 -8 10
-12 23 -8 29 3 6 1 7 -5 3 -7 -4 -12 -1 -12 6 0 9 -3 9 -10 -2 -6 -10 -10 -11
-10 -2 0 6 -5 12 -11 12 -5 0 -7 -6 -3 -12 6 -10 5 -10 -7 -1 -12 10 -18 10
-27 1 -9 -9 -12 -9 -12 0 0 7 3 12 8 13 22 2 45 8 50 14 4 3 -8 3 -27 0 -25
-4 -31 -2 -25 7 4 7 -2 5 -13 -5 -20 -17 -20 -17 -16 6 3 16 -1 26 -12 30 -9
4 -14 3 -10 -3 3 -6 1 -10 -4 -10 -6 0 -11 4 -11 9 0 5 -7 12 -16 15 -14 5
-15 4 -4 -9 10 -12 11 -18 1 -28 -10 -9 -11 -9 -6 3 3 9 -3 25 -14 37 -11 11
-17 24 -13 29 4 4 1 4 -6 0 -9 -5 -10 -12 -3 -20 7 -8 5 -12 -8 -12 -12 0 -17
6 -13 18 5 21 -23 26 -31 6 -4 -8 -6 -7 -6 4 -1 9 5 18 12 21 6 2 -3 4 -21 5
-21 0 -30 -3 -26 -10 4 -7 2 -8 -5 -4 -9 6 -9 11 1 24 10 12 10 14 0 8 -7 -4
-15 -1 -18 8 -3 9 -10 16 -16 16 -5 0 -6 -4 -3 -10 3 -5 -1 -10 -10 -10 -9 0
-13 5 -10 10 3 6 -3 10 -15 10 -14 0 -19 4 -14 13 5 7 0 6 -11 -3 -11 -9 -16
-10 -11 -2 4 6 3 12 -1 12 -5 0 -15 -6 -22 -12 -11 -10 -13 -10 -7 0 4 7 1 12
-8 12 -9 0 -16 5 -16 11 0 8 -6 7 -17 -2 -16 -12 -17 -12 -6 1 8 10 9 21 3 30
-8 12 -10 11 -10 -5 -1 -18 -1 -19 -11 -2 -5 9 -7 23 -4 30 4 6 0 4 -8 -6 -13
-15 -15 -16 -21 -2 -3 8 -11 15 -17 15 -8 0 -7 -5 2 -17 13 -17 13 -17 -7 0
-11 9 -24 14 -29 10 -4 -5 -5 -2 -1 5 4 7 13 9 19 5 7 -4 6 0 -2 10 -14 18
-26 23 -17 8 3 -5 -1 -11 -9 -14 -10 -4 -12 -1 -8 11 6 14 4 15 -9 4 -13 -10
-18 -9 -29 5 -13 16 -12 17 4 4 10 -8 17 -9 17 -3 0 6 -9 14 -20 17 -11 4 -18
10 -15 15 6 10 -15 8 -34 -4 -10 -6 -12 -5 -7 2 4 7 3 12 -3 12 -5 0 -11 -5
-13 -12 -3 -7 -7 -5 -11 6 -4 9 -3 15 2 11 5 -3 12 -1 15 4 7 10 -20 9 -30 -2
-10 -10 -26 -9 -20 2 3 4 -2 17 -10 27 -13 15 -15 16 -10 2 2 -9 -1 -19 -8
-21 -9 -4 -12 2 -11 17 3 20 -2 22 -31 21 -19 0 -34 3 -34 8 0 4 -6 5 -12 1
-10 -6 -10 -4 0 7 15 16 16 29 1 29 -5 0 -7 -4 -4 -10 3 -5 -1 -10 -9 -10 -9
0 -16 8 -16 19 0 11 -4 22 -9 25 -4 3 -7 -7 -5 -22 2 -15 1 -19 -2 -9 -4 13
-12 17 -25 14 -15 -4 -18 -2 -10 7 6 7 8 16 4 20 -4 4 -15 -3 -24 -15 l-17
-22 3 26 c2 15 -1 25 -6 21 -5 -3 -9 0 -9 7 0 10 -3 10 -12 1 -15 -15 -28 -15
-28 -1 0 5 4 8 8 5 5 -3 9 2 9 10 0 10 -4 11 -11 4 -14 -14 -29 -13 -20 3 5 7
0 6 -11 -3 -17 -14 -18 -13 -12 2 3 10 1 20 -5 24 -6 4 -9 3 -6 -2 3 -5 -1
-15 -9 -23 -13 -12 -14 -11 -8 9 5 15 4 20 -4 16 -6 -4 -11 -2 -11 3 0 6 -5
11 -11 11 -5 0 -8 -4 -4 -9 3 -5 1 -13 -5 -16 -6 -4 -9 -1 -8 7 2 7 -3 12 -10
10 -8 -1 -11 1 -9 5 3 5 -2 17 -10 28 -15 20 -15 20 -9 -1 5 -15 1 -24 -11
-28 -14 -5 -15 -4 -7 4 13 13 7 53 -7 45 -4 -3 -6 -13 -3 -23 5 -16 5 -16 -6
0 -6 10 -18 15 -28 12 -14 -5 -14 -4 -2 4 8 6 18 8 22 6 4 -3 5 3 1 12 -4 11
-8 13 -11 6 -5 -17 -23 -15 -37 5 -16 22 -49 27 -41 6 5 -12 4 -13 -7 -5 -8 7
-18 8 -23 4 -4 -4 -3 0 4 9 10 13 7 15 -23 14 -19 -1 -32 2 -29 7 3 4 9 6 13
4 4 -3 8 1 8 8 0 7 -5 13 -11 13 -36 -1 -56 4 -51 12 3 5 1 12 -4 15 -5 4 -13
1 -17 -5 -5 -8 -3 -9 7 -4 8 5 10 4 6 0 -4 -5 -15 -10 -24 -11 -12 -2 -13 0
-4 9 18 18 13 31 -6 16 -11 -10 -14 -10 -9 -1 4 7 1 12 -9 12 -9 0 -14 -4 -11
-9 4 -5 -2 -8 -11 -7 -9 2 -19 9 -21 17 -3 12 -2 12 6 0 5 -7 12 -9 15 -5 2 5
-12 20 -32 33 l-36 23 20 -22z m283 -145 c-3 -3 -9 2 -12 12 -6 14 -5 15 5 6
7 -7 10 -15 7 -18z m7377 -75 c3 -5 1 -10 -4 -10 -6 0 -11 5 -11 10 0 6 2 10
4 10 3 0 8 -4 11 -10z m-211 -36 c3 -8 2 -12 -4 -9 -6 3 -10 10 -10 16 0 14 7
11 14 -7z m-140 -62 c3 -5 -1 -9 -9 -9 -8 0 -12 4 -9 9 3 4 7 8 9 8 2 0 6 -4
9 -8z m371 -10 c-3 -3 -11 0 -18 7 -9 10 -8 11 6 5 10 -3 15 -9 12 -12z m-631
-106 c-6 -15 -24 -23 -24 -11 0 8 24 34 28 30 1 -1 0 -10 -4 -19z m-6149 4 c3
-5 1 -10 -4 -10 -6 0 -11 5 -11 10 0 6 2 10 4 10 3 0 8 -4 11 -10z m6776 -37
c13 -16 12 -17 -3 -4 -10 7 -18 15 -18 17 0 8 8 3 21 -13z m6 -38 c0 -8 -4
-12 -9 -9 -4 3 -8 9 -8 15 0 5 4 9 8 9 5 0 9 -7 9 -15z m-997 -86 c-7 -11 -14
-18 -17 -15 -3 3 0 12 7 21 18 21 23 19 10 -6z m-5440 -9 c0 -5 -5 -10 -11
-10 -5 0 -7 5 -4 10 3 6 8 10 11 10 2 0 4 -4 4 -10z m6433 -64 c4 -10 1 -13
-8 -9 -8 3 -12 9 -9 14 7 12 11 11 17 -5z m-1459 -135 c3 -5 -1 -14 -8 -20
-12 -10 -14 -9 -11 6 2 10 4 19 4 21 2 5 10 2 15 -7z m-54 -15 c0 -2 -6 -9
-14 -15 -11 -9 -16 -9 -22 0 -4 7 -3 9 4 5 6 -3 13 -2 17 4 6 10 15 14 15 6z
m-4360 -60 c0 -3 -4 -8 -10 -11 -5 -3 -10 -1 -10 4 0 6 5 11 10 11 6 0 10 -2
10 -4z m104 -174 c3 -5 -1 -9 -9 -9 -8 0 -12 4 -9 9 3 4 7 8 9 8 2 0 6 -4 9
-8z m0 -60 c3 -5 -1 -9 -9 -9 -8 0 -12 4 -9 9 3 4 7 8 9 8 2 0 6 -4 9 -8z m6
-32 c0 -5 -4 -10 -10 -10 -5 0 -10 5 -10 10 0 6 5 10 10 10 6 0 10 -4 10 -10z
m3910 4 c0 -8 -19 -13 -24 -6 -3 5 1 9 9 9 8 0 15 -2 15 -3z m-5775 -23 c3 -5
2 -12 -3 -15 -5 -3 -9 1 -9 9 0 17 3 19 12 6z m7661 -36 c-3 -24 -23 -39 -23
-18 0 10 5 21 11 25 15 10 15 10 12 -7z m-1909 -30 c0 -8 -4 -12 -9 -9 -5 3
-6 10 -3 15 9 13 12 11 12 -6z m1903 -20 c0 -7 -30 -13 -34 -7 -3 4 4 9 15 9
10 1 19 0 19 -2z m-176 -83 c3 -5 -1 -9 -9 -9 -8 0 -12 4 -9 9 3 4 7 8 9 8 2
0 6 -4 9 -8z m-224 -253 c0 -5 -5 -9 -12 -9 -6 0 -8 3 -5 7 4 3 1 13 -6 22
-11 14 -10 14 6 2 9 -7 17 -17 17 -22z m-5345 2 c3 -5 2 -12 -3 -15 -5 -3 -9
1 -9 9 0 17 3 19 12 6z m5350 -46 c0 -10 -6 -20 -12 -22 -16 -6 -17 13 -2 23
8 4 7 9 -2 16 -11 8 -11 9 1 5 8 -2 15 -12 15 -22z m-5262 2 c3 -8 -1 -14 -8
-14 -7 0 -11 6 -8 14 3 7 6 13 8 13 2 0 5 -6 8 -13z m-1633 -17 c0 -5 -5 -10
-11 -10 -5 0 -7 5 -4 10 3 6 8 10 11 10 2 0 4 -4 4 -10z m16 -47 c13 -20 13
-25 2 -16 -8 7 -17 11 -19 8 -3 -2 -5 5 -5 15 0 25 0 25 22 -7z m5260 -5 c3
-4 -1 -5 -10 -4 -8 1 -18 5 -22 8 -3 4 1 5 10 4 8 -1 18 -5 22 -8z m1615 -11
c-13 -13 -26 -3 -16 12 3 6 11 8 17 5 6 -4 6 -10 -1 -17z m-1695 -29 c3 -4 -1
-5 -10 -4 -8 1 -18 5 -22 8 -3 4 1 5 10 4 8 -1 18 -5 22 -8z m-3199 -50 c-3
-8 -6 -5 -6 6 -1 11 2 17 5 13 3 -3 4 -12 1 -19z m-1797 -52 c0 -2 -8 -10 -17
-17 -16 -13 -17 -12 -4 4 13 16 21 21 21 13z m63 -61 c-3 -9 -8 -14 -10 -11
-3 3 -2 9 2 15 9 16 15 13 8 -4z m4287 -20 c-7 -9 -15 -13 -19 -10 -3 3 1 10
9 15 21 14 24 12 10 -5z m-36 -7 c-3 -4 -9 -8 -15 -8 -5 0 -9 4 -9 8 0 5 7 9
15 9 8 0 12 -4 9 -9z m-1834 -22 c0 -2 -7 -7 -16 -10 -8 -3 -12 -2 -9 4 6 10
25 14 25 6z m49 -23 c2 -1 -5 -1 -16 0 -11 0 -20 7 -20 14 0 10 4 10 16 1 9
-7 18 -13 20 -15z m266 -32 c-6 -5 -25 10 -25 20 0 5 6 4 14 -3 8 -7 12 -15
11 -17z m-118 3 c-3 -3 -12 -4 -19 -1 -8 3 -5 6 6 6 11 1 17 -2 13 -5z m383
-8 c0 -2 -6 -9 -14 -15 -11 -9 -16 -9 -22 0 -4 7 -3 9 4 5 6 -3 13 -2 17 4 6
10 15 14 15 6z m3254 -48 c-9 -14 -23 2 -17 18 4 12 8 13 14 3 4 -7 5 -17 3
-21z m-5951 -13 c-3 -9 -8 -14 -10 -11 -3 3 -2 9 2 15 9 16 15 13 8 -4z m5720
-106 c-8 -8 -13 -7 -18 2 -5 8 -4 10 3 5 7 -4 12 -2 12 5 0 7 3 9 7 6 4 -4 2
-12 -4 -18z m-93 -43 c0 -3 -4 -8 -10 -11 -5 -3 -10 -1 -10 4 0 6 5 11 10 11
6 0 10 -2 10 -4z m-5000 -163 c0 -15 2 -16 10 -3 5 8 10 10 10 4 0 -18 -13
-24 -27 -13 -15 13 -17 29 -3 29 6 0 10 -8 10 -17z m4305 -122 c3 -5 2 -12 -3
-15 -5 -3 -9 1 -9 9 0 17 3 19 12 6z m-3865 -15 c0 -2 -7 -7 -16 -10 -8 -3
-12 -2 -9 4 6 10 25 14 25 6z m3735 -25 c3 -5 1 -12 -5 -16 -5 -3 -10 1 -10 9
0 18 6 21 15 7z m-138 -53 c-3 -8 -6 -5 -6 6 -1 11 2 17 5 13 3 -3 4 -12 1
-19z m-137 -28 c0 -4 -7 -7 -15 -6 -23 3 -26 12 -5 13 11 1 20 -2 20 -7z
m-256 -61 c-3 -5 -10 -7 -15 -3 -5 3 -7 10 -3 15 3 5 10 7 15 3 5 -3 7 -10 3
-15z m-304 -39 c0 -5 -2 -10 -4 -10 -3 0 -8 5 -11 10 -3 6 -1 10 4 10 6 0 11
-4 11 -10z m-20 -14 c0 -3 -4 -8 -10 -11 -5 -3 -10 -1 -10 4 0 6 5 11 10 11 6
0 10 -2 10 -4z m-1860 -26 c0 -5 -2 -10 -4 -10 -3 0 -8 5 -11 10 -3 6 -1 10 4
10 6 0 11 -4 11 -10z m517 -43 c0 -8 -6 -14 -14 -14 -9 0 -10 4 -2 14 6 7 12
13 14 13 1 0 2 -6 2 -13z m-37 -1 c0 -3 -4 -8 -10 -11 -5 -3 -10 -1 -10 4 0 6
5 11 10 11 6 0 10 -2 10 -4z m440 0 c0 -3 -4 -8 -10 -11 -5 -3 -10 -1 -10 4 0
6 5 11 10 11 6 0 10 -2 10 -4z"/>
<path d="M2506 3943 c-6 -14 -5 -15 5 -6 7 7 10 15 7 18 -3 3 -9 -2 -12 -12z"/>
<path d="M1313 3858 c3 -9 1 -19 -6 -22 -9 -3 -9 -5 0 -5 18 -1 23 13 11 29
-8 12 -9 12 -5 -2z"/>
<path d="M1570 3849 c0 -5 5 -7 10 -4 6 3 10 8 10 11 0 2 -4 4 -10 4 -5 0 -10
-5 -10 -11z"/>
<path d="M7886 3791 c-3 -5 3 -11 15 -14 16 -4 18 -3 8 9 -13 16 -16 17 -23 5z"/>
<path d="M1310 3779 c0 -5 5 -7 10 -4 6 3 10 8 10 11 0 2 -4 4 -10 4 -5 0 -10
-5 -10 -11z"/>
<path d="M1777 3759 c7 -7 15 -10 18 -7 3 3 -2 9 -12 12 -14 6 -15 5 -6 -5z"/>
<path d="M2690 3759 c0 -7 3 -9 6 -6 4 3 15 2 25 -3 10 -6 20 -6 23 -2 3 5 0
9 -7 9 -7 0 -20 4 -29 8 -12 5 -18 3 -18 -6z"/>
<path d="M1310 3619 c0 -5 5 -7 10 -4 6 3 10 8 10 11 0 2 -4 4 -10 4 -5 0 -10
-5 -10 -11z"/>
<path d="M7606 3581 c-4 -5 -2 -12 3 -15 5 -4 12 -2 15 3 4 5 2 12 -3 15 -5 4
-12 2 -15 -3z"/>
<path d="M8470 3565 c0 -7 30 -13 34 -7 3 4 -4 9 -15 9 -10 1 -19 0 -19 -2z"/>
<path d="M9055 3530 c-3 -5 -3 -10 2 -10 4 0 1 -5 -7 -11 -12 -8 -12 -10 -1
-7 8 2 15 12 17 21 3 19 -2 22 -11 7z"/>
<path d="M1310 3459 c0 -5 5 -7 10 -4 6 3 10 8 10 11 0 2 -4 4 -10 4 -5 0 -10
-5 -10 -11z"/>
<path d="M8107 3397 c-10 -10 -17 -20 -15 -22 6 -6 40 24 37 32 -2 5 -12 0
-22 -10z"/>
<path d="M2480 3406 c0 -2 7 -6 15 -10 8 -3 15 -1 15 4 0 6 -7 10 -15 10 -8 0
-15 -2 -15 -4z"/>
<path d="M7976 3332 c-3 -4 4 -9 15 -9 23 -2 25 3 4 10 -8 4 -16 3 -19 -1z"/>
<path d="M3350 3319 c0 -5 4 -8 9 -5 5 3 12 -1 15 -10 4 -9 9 -14 13 -11 7 8
-15 37 -28 37 -5 0 -9 -5 -9 -11z"/>
<path d="M7166 3305 c-17 -13 -18 -15 -3 -15 9 0 17 5 17 11 0 5 5 7 12 3 7
-4 8 -3 4 4 -9 14 -7 15 -30 -3z"/>
<path d="M1310 3299 c0 -5 5 -7 10 -4 6 3 10 8 10 11 0 2 -4 4 -10 4 -5 0 -10
-5 -10 -11z"/>
<path d="M3476 3245 c4 -8 8 -15 10 -15 2 0 4 7 4 15 0 8 -4 15 -10 15 -5 0
-7 -7 -4 -15z"/>
<path d="M3590 3200 c0 -5 5 -10 11 -10 5 0 7 5 4 10 -3 6 -8 10 -11 10 -2 0
-4 -4 -4 -10z"/>
<path d="M9055 3200 c-3 -5 -1 -10 4 -10 6 0 11 5 11 10 0 6 -2 10 -4 10 -3 0
-8 -4 -11 -10z"/>
<path d="M7590 3166 c0 -2 7 -7 16 -10 8 -3 12 -2 9 4 -6 10 -25 14 -25 6z"/>
<path d="M1310 3139 c0 -5 5 -7 10 -4 6 3 10 8 10 11 0 2 -4 4 -10 4 -5 0 -10
-5 -10 -11z"/>
<path d="M7347 3056 c-4 -10 -1 -13 9 -9 7 3 14 9 14 14 0 14 -17 10 -23 -5z"/>
<path d="M6719 3050 c-7 -5 -10 -13 -5 -17 5 -4 11 -3 13 4 2 7 11 9 19 6 8
-3 14 -3 14 0 0 10 -27 15 -41 7z"/>
<path d="M7291 3046 c-8 -10 -9 -16 -1 -21 5 -3 10 -5 11 -3 4 18 7 38 4 38
-1 0 -8 -6 -14 -14z"/>
<path d="M3226 3037 c3 -10 9 -15 12 -12 3 3 0 11 -7 18 -10 9 -11 8 -5 -6z"/>
<path d="M7216 3005 c-3 -8 -1 -15 4 -15 6 0 10 7 10 15 0 8 -2 15 -4 15 -2 0
-6 -7 -10 -15z"/>
<path d="M3228 2998 c5 -5 16 -8 23 -6 8 3 3 7 -10 11 -17 4 -21 3 -13 -5z"/>
<path d="M1310 2979 c0 -5 5 -7 10 -4 6 3 10 8 10 11 0 2 -4 4 -10 4 -5 0 -10
-5 -10 -11z"/>
<path d="M6585 2970 c-4 -6 -12 -7 -18 -4 -7 4 -8 3 -4 -1 10 -12 39 -16 32
-5 -3 5 1 11 7 13 9 4 10 6 1 6 -6 1 -15 -4 -18 -9z"/>
<path d="M4015 2960 c-3 -5 -1 -10 4 -10 6 0 11 5 11 10 0 6 -2 10 -4 10 -3 0
-8 -4 -11 -10z"/>
<path d="M7156 2943 c-6 -14 -5 -15 5 -6 7 7 10 15 7 18 -3 3 -9 -2 -12 -12z"/>
<path d="M9065 2941 c-3 -6 4 -15 15 -21 13 -7 20 -7 20 0 0 5 -8 10 -17 10
-15 0 -16 2 -3 10 9 6 10 10 3 10 -6 0 -14 -4 -18 -9z"/>
<path d="M6513 2925 c0 -8 4 -12 9 -9 5 3 6 10 3 15 -9 13 -12 11 -12 -6z"/>
<path d="M7140 2900 c-8 -5 -10 -10 -5 -10 6 0 17 5 25 10 8 5 11 10 5 10 -5
0 -17 -5 -25 -10z"/>
<path d="M4155 2880 c-3 -5 -1 -10 4 -10 6 0 11 5 11 10 0 6 -2 10 -4 10 -3 0
-8 -4 -11 -10z"/>
<path d="M4183 2865 c0 -8 4 -12 9 -9 5 3 6 10 3 15 -9 13 -12 11 -12 -6z"/>
<path d="M6265 2809 c-11 -17 1 -21 15 -4 8 9 8 15 2 15 -6 0 -14 -5 -17 -11z"/>
<path d="M7122 2764 c10 -10 20 -16 22 -13 3 3 -5 11 -17 18 -21 13 -21 12 -5
-5z"/>
<path d="M1567 2679 c4 -13 8 -18 11 -10 2 7 -1 18 -6 23 -8 8 -9 4 -5 -13z"/>
<path d="M3278 2663 c7 -3 16 -2 19 1 4 3 -2 6 -13 5 -11 0 -14 -3 -6 -6z"/>
<path d="M8979 2648 c0 -2 -2 -11 -4 -21 -3 -15 -1 -16 11 -6 7 6 11 15 8 20
-5 9 -13 12 -15 7z"/>
<path d="M1716 2612 c-3 -5 1 -9 9 -9 8 0 12 4 9 9 -3 4 -7 8 -9 8 -2 0 -6 -4
-9 -8z"/>
<path d="M3273 2595 c0 -8 4 -12 9 -9 5 3 6 10 3 15 -9 13 -12 11 -12 -6z"/>
<path d="M8836 2555 c-9 -26 -7 -32 5 -12 6 10 9 21 6 23 -2 3 -7 -2 -11 -11z"/>
<path d="M7146 2522 c-3 -4 4 -9 15 -9 23 -2 25 3 4 10 -8 4 -16 3 -19 -1z"/>
<path d="M8738 2502 c4 -10 7 -12 10 -4 2 7 9 9 15 5 7 -3 8 -2 4 2 -14 16
-36 14 -29 -3z"/>
<path d="M3260 2416 c0 -2 7 -7 16 -10 8 -3 12 -2 9 4 -6 10 -25 14 -25 6z"/>
<path d="M4975 2400 c-3 -5 -1 -10 4 -10 6 0 11 5 11 10 0 6 -2 10 -4 10 -3 0
-8 -4 -11 -10z"/>
<path d="M1731 2363 c-1 -6 4 -15 10 -19 8 -4 7 -9 -2 -16 -12 -8 -12 -9 0 -6
8 2 15 12 17 21 1 9 -1 15 -6 12 -5 -3 -11 1 -13 7 -4 9 -6 10 -6 1z"/>
<path d="M5063 2319 c-2 -23 3 -25 10 -4 4 8 3 16 -1 19 -4 3 -9 -4 -9 -15z"/>
<path d="M5506 2332 c-3 -5 1 -9 9 -9 8 0 12 4 9 9 -3 4 -7 8 -9 8 -2 0 -6 -4
-9 -8z"/>
<path d="M3465 2290 c-3 -6 1 -7 9 -4 18 7 21 14 7 14 -6 0 -13 -4 -16 -10z"/>
<path d="M3501 2284 c0 -11 3 -14 6 -6 3 7 2 16 -1 19 -3 4 -6 -2 -5 -13z"/>
<path d="M3530 2278 c0 -9 5 -20 10 -23 13 -8 13 5 0 25 -8 13 -10 13 -10 -2z"/>
<path d="M7055 2280 c3 -5 8 -10 11 -10 2 0 4 5 4 10 0 6 -5 10 -11 10 -5 0
-7 -4 -4 -10z"/>
<path d="M3661 2233 c-1 -17 16 -25 25 -12 4 7 3 9 -4 5 -5 -3 -13 0 -15 6 -4
9 -6 10 -6 1z"/>
<path d="M8680 2195 c-7 -9 -11 -17 -9 -20 3 -2 10 5 17 15 14 24 10 26 -8 5z"/>
<path d="M1785 2180 c-3 -6 1 -7 9 -4 18 7 21 14 7 14 -6 0 -13 -4 -16 -10z"/>
<path d="M5350 2159 c0 -5 5 -7 10 -4 6 3 10 8 10 11 0 2 -4 4 -10 4 -5 0 -10
-5 -10 -11z"/>
<path d="M6770 2154 c0 -8 5 -12 10 -9 6 3 10 10 10 16 0 5 -4 9 -10 9 -5 0
-10 -7 -10 -16z"/>
<path d="M3887 2145 c3 -8 9 -12 14 -9 12 7 11 11 -5 17 -10 4 -13 1 -9 -8z"/>
<path d="M6450 2080 c0 -5 5 -10 11 -10 5 0 7 5 4 10 -3 6 -8 10 -11 10 -2 0
-4 -4 -4 -10z"/>
<path d="M1993 2055 c0 -8 4 -12 9 -9 5 3 6 10 3 15 -9 13 -12 11 -12 -6z"/>
<path d="M4321 2036 c-10 -11 -9 -14 1 -12 14 2 23 15 15 22 -2 2 -10 -2 -16
-10z"/>
<path d="M4895 1961 c-3 -5 -2 -12 3 -15 5 -3 9 1 9 9 0 17 -3 19 -12 6z"/>
<path d="M4926 1953 c-6 -14 -5 -15 5 -6 7 7 10 15 7 18 -3 3 -9 -2 -12 -12z"/>
<path d="M5062 1954 c10 -10 20 -16 22 -13 3 3 -5 11 -17 18 -21 13 -21 12 -5
-5z"/>
<path d="M5542 1954 c10 -10 20 -16 22 -13 3 3 -5 11 -17 18 -21 13 -21 12 -5
-5z"/>
<path d="M5615 1961 c-3 -5 -2 -12 3 -15 5 -3 9 1 9 9 0 17 -3 19 -12 6z"/>
<path d="M5646 1953 c-6 -14 -5 -15 5 -6 7 7 10 15 7 18 -3 3 -9 -2 -12 -12z"/>
<path d="M8410 1959 c0 -5 5 -7 10 -4 6 3 10 8 10 11 0 2 -4 4 -10 4 -5 0 -10
-5 -10 -11z"/>
<path d="M4827 1949 c7 -7 15 -10 18 -7 3 3 -2 9 -12 12 -14 6 -15 5 -6 -5z"/>
<path d="M5105 1950 c-3 -6 1 -7 9 -4 18 7 21 14 7 14 -6 0 -13 -4 -16 -10z"/>
<path d="M5143 1940 c3 -16 21 -14 25 2 3 10 2 10 -6 -1 -7 -9 -11 -10 -15 -2
-4 7 -5 8 -4 1z"/>
<path d="M2201 1920 c-9 -5 -4 -7 13 -7 29 0 32 2 13 10 -8 3 -20 2 -26 -3z"/>
<path d="M8246 1862 c-3 -5 1 -9 9 -9 8 0 12 4 9 9 -3 4 -7 8 -9 8 -2 0 -6 -4
-9 -8z"/>
<path d="M8186 1832 c-3 -5 1 -9 9 -9 8 0 12 4 9 9 -3 4 -7 8 -9 8 -2 0 -6 -4
-9 -8z"/>
<path d="M2395 1810 c3 -5 8 -10 11 -10 2 0 4 5 4 10 0 6 -5 10 -11 10 -5 0
-7 -4 -4 -10z"/>
<path d="M2535 1731 c-3 -5 -2 -12 3 -15 5 -3 9 1 9 9 0 17 -3 19 -12 6z"/>
<path d="M7643 1566 c-3 -5 -1 -6 5 -2 5 3 12 2 14 -3 1 -5 9 -3 15 4 10 11 9
13 -8 12 -11 -1 -23 -6 -26 -11z"/>
<path d="M7544 1532 c4 -3 14 -7 22 -8 9 -1 13 0 10 4 -4 3 -14 7 -22 8 -9 1
-13 0 -10 -4z"/>
<path d="M7416 1482 c-3 -5 1 -9 9 -9 8 0 12 4 9 9 -3 4 -7 8 -9 8 -2 0 -6 -4
-9 -8z"/>
<path d="M7215 1409 c-4 -6 -5 -12 -2 -15 2 -3 7 2 10 11 7 17 1 20 -8 4z"/>
<path d="M3451 1385 c0 -5 3 -16 8 -23 7 -11 9 -10 14 3 4 9 3 14 -2 10 -5 -3
-12 1 -14 7 -3 7 -6 9 -6 3z"/>
<path d="M6776 1287 c3 -10 9 -15 12 -12 3 3 0 11 -7 18 -10 9 -11 8 -5 -6z"/>
<path d="M4124 1208 c-4 -5 -3 -12 0 -15 3 -4 6 -1 6 5 0 7 5 12 11 12 5 0 7
-5 3 -11 -5 -8 -1 -8 13 0 11 6 23 7 27 4 3 -3 6 -2 6 4 0 12 -59 13 -66 1z"/>
<path d="M5990 1160 c0 -5 5 -10 11 -10 5 0 7 5 4 10 -3 6 -8 10 -11 10 -2 0
-4 -4 -4 -10z"/>
<path d="M4790 1130 c0 -5 5 -10 10 -10 6 0 10 5 10 10 0 6 -4 10 -10 10 -5 0
-10 -4 -10 -10z"/>
<path d="M5696 1127 c3 -10 9 -15 12 -12 3 3 0 11 -7 18 -10 9 -11 8 -5 -6z"/>
<path d="M3222 775 c-90 -41 -138 -102 -150 -194 -14 -102 9 -191 67 -251 80
-84 257 -92 373 -15 l37 25 -2 102 -2 103 -112 0 -113 0 2 -42 c1 -46 5 -48
80 -43 31 2 49 -25 38 -56 -11 -28 -69 -54 -122 -54 -91 0 -142 65 -142 180 0
77 20 122 67 150 60 37 157 16 187 -39 8 -16 17 -19 43 -14 68 13 68 13 47 60
-29 66 -81 94 -182 99 -60 3 -92 0 -116 -11z"/>
<path d="M3641 782 c-16 -5 -14 -82 2 -83 6 -1 58 -1 115 -1 56 0 102 -3 102
-7 0 -4 -60 -81 -133 -170 -127 -157 -133 -166 -130 -204 2 -22 5 -43 8 -45 4
-4 60 -4 351 -2 l61 0 0 43 1 42 -144 0 c-79 0 -143 3 -142 6 2 4 64 82 138
174 124 153 134 170 135 208 l0 42 -177 0 c-97 0 -182 -1 -187 -3z"/>
<path d="M4085 780 c-2 -3 -2 -93 -1 -200 3 -220 9 -247 73 -290 32 -22 47
-25 127 -25 108 0 148 18 183 81 20 37 22 54 23 214 0 96 1 187 0 201 0 24 -3
26 -50 25 l-50 -1 -1 -177 c-1 -98 -3 -182 -4 -188 -1 -5 -3 -14 -4 -20 0 -5
-10 -19 -21 -30 -30 -30 -109 -28 -144 5 -29 26 -27 12 -31 250 -1 77 -3 145
-4 150 -1 10 -90 15 -96 5z"/>
<path d="M4812 781 c-5 -3 -9 -120 -9 -258 l0 -253 53 0 53 0 -1 90 c0 50 2
93 5 96 3 3 44 7 90 9 115 4 165 34 186 113 22 83 -12 160 -86 191 -31 12
-275 23 -291 12z m246 -103 c46 -23 37 -99 -14 -118 -14 -6 -50 -10 -80 -10
l-54 0 0 76 0 76 63 -7 c34 -3 72 -11 85 -17z"/>
<path d="M5419 777 c-98 -37 -151 -119 -154 -240 -5 -185 98 -288 273 -274 82
6 144 44 186 112 29 47 31 56 31 150 0 90 -3 104 -27 145 -29 50 -51 71 -100
96 -43 23 -162 29 -209 11z m150 -88 c50 -18 83 -77 83 -153 0 -101 -19 -143
-77 -170 -66 -32 -128 -17 -171 40 -24 31 -29 47 -31 108 -5 146 75 217 196
175z"/>
<path d="M5843 528 l1 -258 54 0 c52 0 53 1 52 28 -1 15 -2 62 -1 105 l1 77
33 0 c46 0 66 -17 132 -115 33 -47 63 -89 69 -92 10 -6 108 -5 114 2 8 8 -95
154 -131 187 -34 31 -38 38 -22 38 32 0 82 36 101 71 31 61 13 148 -38 181
-37 24 -84 31 -229 32 l-136 1 0 -257z m287 157 c19 -12 30 -53 20 -79 -11
-30 -34 -38 -126 -41 l-74 -2 -1 28 c-1 16 -1 40 -1 54 0 57 -4 55 86 51 47
-2 90 -7 96 -11z"/>
<path d="M6339 782 c-11 -2 -15 -13 -12 -39 1 -20 5 -38 8 -42 4 -3 36 -6 73
-6 l67 0 3 -212 c2 -160 5 -213 15 -214 31 -3 79 0 84 5 4 3 6 100 6 214 l0
208 69 1 c37 0 72 3 75 7 10 9 13 76 5 77 -16 3 -378 4 -393 1z"/>
<path d="M6903 781 c-5 -3 -38 -80 -72 -171 -35 -91 -69 -178 -76 -195 -7 -16
-21 -50 -30 -75 -9 -25 -19 -51 -22 -57 -4 -10 10 -13 50 -13 l56 0 21 58 21
57 101 0 102 0 21 -52 c11 -28 24 -55 28 -59 7 -7 98 -7 105 0 4 4 -193 494
-202 503 -8 9 -92 12 -103 4z m112 -292 c4 -13 -5 -16 -60 -17 -41 -1 -65 3
-65 10 0 12 47 145 57 161 5 8 46 -84 68 -154z"/>
<path d="M7272 525 l1 -255 41 -1 c78 0 191 -1 257 0 l65 1 0 40 c0 22 -3 41
-6 41 -3 1 -61 2 -129 3 l-124 1 1 213 0 212 -53 0 -54 0 1 -255z"/>
</g>
</svg>
